<svg xmlns="http://www.w3.org/2000/svg" xmlns:xlink="http://www.w3.org/1999/xlink" contentStyleType="text/css" height="724px" preserveAspectRatio="none" style="width:524px;height:724px;background:#FFFFFF;" version="1.1" viewBox="0 0 524 724" width="524px" zoomAndPan="magnify"><title>Diagrama de Clases</title><defs/><g><text fill="#000000" font-family="sans-serif" font-size="14" font-weight="bold" lengthAdjust="spacing" textLength="156.2217" x="177.123" y="22.9951">Diagrama de Clases</text><!--class Horario--><g id="elem_Horario"><rect codeLine="3" fill="#F1F1F1" height="48" id="Horario" rx="2.5" ry="2.5" style="stroke:#181818;stroke-width:0.5;" width="83.6387" x="7" y="419.2969"/><ellipse cx="22" cy="435.2969" fill="#ADD1B2" rx="11" ry="11" style="stroke:#181818;stroke-width:1.0;"/><path d="M24.9688,440.9375 Q24.3906,441.2344 23.75,441.375 Q23.1094,441.5313 22.4063,441.5313 Q19.9063,441.5313 18.5781,439.8906 Q17.2656,438.2344 17.2656,435.1094 Q17.2656,431.9844 18.5781,430.3281 Q19.9063,428.6719 22.4063,428.6719 Q23.1094,428.6719 23.75,428.8281 Q24.4063,428.9844 24.9688,429.2813 L24.9688,432 Q24.3438,431.4219 23.75,431.1563 Q23.1563,430.875 22.5313,430.875 Q21.1875,430.875 20.5,431.9531 Q19.8125,433.0156 19.8125,435.1094 Q19.8125,437.2031 20.5,438.2813 Q21.1875,439.3438 22.5313,439.3438 Q23.1563,439.3438 23.75,439.0781 Q24.3438,438.7969 24.9688,438.2188 L24.9688,440.9375 Z " fill="#000000"/><text fill="#000000" font-family="sans-serif" font-size="14" lengthAdjust="spacing" textLength="51.6387" x="36" y="440.1436">Horario</text><line style="stroke:#181818;stroke-width:0.5;" x1="8" x2="89.6387" y1="451.2969" y2="451.2969"/><line style="stroke:#181818;stroke-width:0.5;" x1="8" x2="89.6387" y1="459.2969" y2="459.2969"/></g><!--class Ruta--><g id="elem_Ruta"><rect codeLine="6" fill="#F1F1F1" height="48" id="Ruta" rx="2.5" ry="2.5" style="stroke:#181818;stroke-width:0.5;" width="64.6689" x="16.5" y="294.2969"/><ellipse cx="31.5" cy="310.2969" fill="#ADD1B2" rx="11" ry="11" style="stroke:#181818;stroke-width:1.0;"/><path d="M34.4688,315.9375 Q33.8906,316.2344 33.25,316.375 Q32.6094,316.5313 31.9063,316.5313 Q29.4063,316.5313 28.0781,314.8906 Q26.7656,313.2344 26.7656,310.1094 Q26.7656,306.9844 28.0781,305.3281 Q29.4063,303.6719 31.9063,303.6719 Q32.6094,303.6719 33.25,303.8281 Q33.9063,303.9844 34.4688,304.2813 L34.4688,307 Q33.8438,306.4219 33.25,306.1563 Q32.6563,305.875 32.0313,305.875 Q30.6875,305.875 30,306.9531 Q29.3125,308.0156 29.3125,310.1094 Q29.3125,312.2031 30,313.2813 Q30.6875,314.3438 32.0313,314.3438 Q32.6563,314.3438 33.25,314.0781 Q33.8438,313.7969 34.4688,313.2188 L34.4688,315.9375 Z " fill="#000000"/><text fill="#000000" font-family="sans-serif" font-size="14" lengthAdjust="spacing" textLength="32.6689" x="45.5" y="315.1436">Ruta</text><line style="stroke:#181818;stroke-width:0.5;" x1="17.5" x2="80.1689" y1="326.2969" y2="326.2969"/><line style="stroke:#181818;stroke-width:0.5;" x1="17.5" x2="80.1689" y1="334.2969" y2="334.2969"/></g><!--class Servicio--><g id="elem_Servicio"><rect codeLine="9" fill="#F1F1F1" height="48" id="Servicio" rx="2.5" ry="2.5" style="stroke:#181818;stroke-width:0.5;" width="87.583" x="23" y="44.2969"/><ellipse cx="38" cy="60.2969" fill="#ADD1B2" rx="11" ry="11" style="stroke:#181818;stroke-width:1.0;"/><path d="M40.9688,65.9375 Q40.3906,66.2344 39.75,66.375 Q39.1094,66.5313 38.4063,66.5313 Q35.9063,66.5313 34.5781,64.8906 Q33.2656,63.2344 33.2656,60.1094 Q33.2656,56.9844 34.5781,55.3281 Q35.9063,53.6719 38.4063,53.6719 Q39.1094,53.6719 39.75,53.8281 Q40.4063,53.9844 40.9688,54.2813 L40.9688,57 Q40.3438,56.4219 39.75,56.1563 Q39.1563,55.875 38.5313,55.875 Q37.1875,55.875 36.5,56.9531 Q35.8125,58.0156 35.8125,60.1094 Q35.8125,62.2031 36.5,63.2813 Q37.1875,64.3438 38.5313,64.3438 Q39.1563,64.3438 39.75,64.0781 Q40.3438,63.7969 40.9688,63.2188 L40.9688,65.9375 Z " fill="#000000"/><text fill="#000000" font-family="sans-serif" font-size="14" lengthAdjust="spacing" textLength="55.583" x="52" y="65.1436">Servicio</text><line style="stroke:#181818;stroke-width:0.5;" x1="24" x2="109.583" y1="76.2969" y2="76.2969"/><line style="stroke:#181818;stroke-width:0.5;" x1="24" x2="109.583" y1="84.2969" y2="84.2969"/></g><!--class Conductor--><g id="elem_Conductor"><rect codeLine="12" fill="#F1F1F1" height="48" id="Conductor" rx="2.5" ry="2.5" style="stroke:#181818;stroke-width:0.5;" width="104.4814" x="153" y="169.2969"/><ellipse cx="168" cy="185.2969" fill="#ADD1B2" rx="11" ry="11" style="stroke:#181818;stroke-width:1.0;"/><path d="M170.9688,190.9375 Q170.3906,191.2344 169.75,191.375 Q169.1094,191.5313 168.4063,191.5313 Q165.9063,191.5313 164.5781,189.8906 Q163.2656,188.2344 163.2656,185.1094 Q163.2656,181.9844 164.5781,180.3281 Q165.9063,178.6719 168.4063,178.6719 Q169.1094,178.6719 169.75,178.8281 Q170.4063,178.9844 170.9688,179.2813 L170.9688,182 Q170.3438,181.4219 169.75,181.1563 Q169.1563,180.875 168.5313,180.875 Q167.1875,180.875 166.5,181.9531 Q165.8125,183.0156 165.8125,185.1094 Q165.8125,187.2031 166.5,188.2813 Q167.1875,189.3438 168.5313,189.3438 Q169.1563,189.3438 169.75,189.0781 Q170.3438,188.7969 170.9688,188.2188 L170.9688,190.9375 Z " fill="#000000"/><text fill="#000000" font-family="sans-serif" font-size="14" lengthAdjust="spacing" textLength="72.4814" x="182" y="190.1436">Conductor</text><line style="stroke:#181818;stroke-width:0.5;" x1="154" x2="256.4814" y1="201.2969" y2="201.2969"/><line style="stroke:#181818;stroke-width:0.5;" x1="154" x2="256.4814" y1="209.2969" y2="209.2969"/></g><!--class Vehiculo--><g id="elem_Vehiculo"><rect codeLine="15" fill="#F1F1F1" height="48" id="Vehiculo" rx="2.5" ry="2.5" style="stroke:#181818;stroke-width:0.5;" width="91.9785" x="331" y="294.2969"/><ellipse cx="346" cy="310.2969" fill="#ADD1B2" rx="11" ry="11" style="stroke:#181818;stroke-width:1.0;"/><path d="M348.9688,315.9375 Q348.3906,316.2344 347.75,316.375 Q347.1094,316.5313 346.4063,316.5313 Q343.9063,316.5313 342.5781,314.8906 Q341.2656,313.2344 341.2656,310.1094 Q341.2656,306.9844 342.5781,305.3281 Q343.9063,303.6719 346.4063,303.6719 Q347.1094,303.6719 347.75,303.8281 Q348.4063,303.9844 348.9688,304.2813 L348.9688,307 Q348.3438,306.4219 347.75,306.1563 Q347.1563,305.875 346.5313,305.875 Q345.1875,305.875 344.5,306.9531 Q343.8125,308.0156 343.8125,310.1094 Q343.8125,312.2031 344.5,313.2813 Q345.1875,314.3438 346.5313,314.3438 Q347.1563,314.3438 347.75,314.0781 Q348.3438,313.7969 348.9688,313.2188 L348.9688,315.9375 Z " fill="#000000"/><text fill="#000000" font-family="sans-serif" font-size="14" lengthAdjust="spacing" textLength="59.9785" x="360" y="315.1436">Vehiculo</text><line style="stroke:#181818;stroke-width:0.5;" x1="332" x2="421.9785" y1="326.2969" y2="326.2969"/><line style="stroke:#181818;stroke-width:0.5;" x1="332" x2="421.9785" y1="334.2969" y2="334.2969"/></g><!--class Incidencia--><g id="elem_Incidencia"><rect codeLine="18" fill="#F1F1F1" height="48" id="Incidencia" rx="2.5" ry="2.5" style="stroke:#181818;stroke-width:0.5;" width="103.1279" x="208.5" y="419.2969"/><ellipse cx="223.5" cy="435.2969" fill="#ADD1B2" rx="11" ry="11" style="stroke:#181818;stroke-width:1.0;"/><path d="M226.4688,440.9375 Q225.8906,441.2344 225.25,441.375 Q224.6094,441.5313 223.9063,441.5313 Q221.4063,441.5313 220.0781,439.8906 Q218.7656,438.2344 218.7656,435.1094 Q218.7656,431.9844 220.0781,430.3281 Q221.4063,428.6719 223.9063,428.6719 Q224.6094,428.6719 225.25,428.8281 Q225.9063,428.9844 226.4688,429.2813 L226.4688,432 Q225.8438,431.4219 225.25,431.1563 Q224.6563,430.875 224.0313,430.875 Q222.6875,430.875 222,431.9531 Q221.3125,433.0156 221.3125,435.1094 Q221.3125,437.2031 222,438.2813 Q222.6875,439.3438 224.0313,439.3438 Q224.6563,439.3438 225.25,439.0781 Q225.8438,438.7969 226.4688,438.2188 L226.4688,440.9375 Z " fill="#000000"/><text fill="#000000" font-family="sans-serif" font-size="14" lengthAdjust="spacing" textLength="71.1279" x="237.5" y="440.1436">Incidencia</text><line style="stroke:#181818;stroke-width:0.5;" x1="209.5" x2="310.6279" y1="451.2969" y2="451.2969"/><line style="stroke:#181818;stroke-width:0.5;" x1="209.5" x2="310.6279" y1="459.2969" y2="459.2969"/></g><!--class Pasajero--><g id="elem_Pasajero"><rect codeLine="21" fill="#F1F1F1" height="48" id="Pasajero" rx="2.5" ry="2.5" style="stroke:#181818;stroke-width:0.5;" width="91.7188" x="231" y="544.2969"/><ellipse cx="246" cy="560.2969" fill="#ADD1B2" rx="11" ry="11" style="stroke:#181818;stroke-width:1.0;"/><path d="M248.9688,565.9375 Q248.3906,566.2344 247.75,566.375 Q247.1094,566.5313 246.4063,566.5313 Q243.9063,566.5313 242.5781,564.8906 Q241.2656,563.2344 241.2656,560.1094 Q241.2656,556.9844 242.5781,555.3281 Q243.9063,553.6719 246.4063,553.6719 Q247.1094,553.6719 247.75,553.8281 Q248.4063,553.9844 248.9688,554.2813 L248.9688,557 Q248.3438,556.4219 247.75,556.1563 Q247.1563,555.875 246.5313,555.875 Q245.1875,555.875 244.5,556.9531 Q243.8125,558.0156 243.8125,560.1094 Q243.8125,562.2031 244.5,563.2813 Q245.1875,564.3438 246.5313,564.3438 Q247.1563,564.3438 247.75,564.0781 Q248.3438,563.7969 248.9688,563.2188 L248.9688,565.9375 Z " fill="#000000"/><text fill="#000000" font-family="sans-serif" font-size="14" lengthAdjust="spacing" textLength="59.7188" x="260" y="565.1436">Pasajero</text><line style="stroke:#181818;stroke-width:0.5;" x1="232" x2="321.7188" y1="576.2969" y2="576.2969"/><line style="stroke:#181818;stroke-width:0.5;" x1="232" x2="321.7188" y1="584.2969" y2="584.2969"/></g><!--class Persona--><g id="elem_Persona"><rect codeLine="24" fill="#F1F1F1" height="48" id="Persona" rx="2.5" ry="2.5" style="stroke:#181818;stroke-width:0.5;" width="88.123" x="134" y="669.2969"/><ellipse cx="149" cy="685.2969" fill="#ADD1B2" rx="11" ry="11" style="stroke:#181818;stroke-width:1.0;"/><path d="M151.9688,690.9375 Q151.3906,691.2344 150.75,691.375 Q150.1094,691.5313 149.4063,691.5313 Q146.9063,691.5313 145.5781,689.8906 Q144.2656,688.2344 144.2656,685.1094 Q144.2656,681.9844 145.5781,680.3281 Q146.9063,678.6719 149.4063,678.6719 Q150.1094,678.6719 150.75,678.8281 Q151.4063,678.9844 151.9688,679.2813 L151.9688,682 Q151.3438,681.4219 150.75,681.1563 Q150.1563,680.875 149.5313,680.875 Q148.1875,680.875 147.5,681.9531 Q146.8125,683.0156 146.8125,685.1094 Q146.8125,687.2031 147.5,688.2813 Q148.1875,689.3438 149.5313,689.3438 Q150.1563,689.3438 150.75,689.0781 Q151.3438,688.7969 151.9688,688.2188 L151.9688,690.9375 Z " fill="#000000"/><text fill="#000000" font-family="sans-serif" font-size="14" lengthAdjust="spacing" textLength="56.123" x="163" y="690.1436">Persona</text><line style="stroke:#181818;stroke-width:0.5;" x1="135" x2="221.123" y1="701.2969" y2="701.2969"/><line style="stroke:#181818;stroke-width:0.5;" x1="135" x2="221.123" y1="709.2969" y2="709.2969"/></g><!--class Tarifa--><g id="elem_Tarifa"><rect codeLine="27" fill="#F1F1F1" height="48" id="Tarifa" rx="2.5" ry="2.5" style="stroke:#181818;stroke-width:0.5;" width="72.2842" x="269" y="669.2969"/><ellipse cx="284" cy="685.2969" fill="#ADD1B2" rx="11" ry="11" style="stroke:#181818;stroke-width:1.0;"/><path d="M286.9688,690.9375 Q286.3906,691.2344 285.75,691.375 Q285.1094,691.5313 284.4063,691.5313 Q281.9063,691.5313 280.5781,689.8906 Q279.2656,688.2344 279.2656,685.1094 Q279.2656,681.9844 280.5781,680.3281 Q281.9063,678.6719 284.4063,678.6719 Q285.1094,678.6719 285.75,678.8281 Q286.4063,678.9844 286.9688,679.2813 L286.9688,682 Q286.3438,681.4219 285.75,681.1563 Q285.1563,680.875 284.5313,680.875 Q283.1875,680.875 282.5,681.9531 Q281.8125,683.0156 281.8125,685.1094 Q281.8125,687.2031 282.5,688.2813 Q283.1875,689.3438 284.5313,689.3438 Q285.1563,689.3438 285.75,689.0781 Q286.3438,688.7969 286.9688,688.2188 L286.9688,690.9375 Z " fill="#000000"/><text fill="#000000" font-family="sans-serif" font-size="14" lengthAdjust="spacing" textLength="40.2842" x="298" y="690.1436">Tarifa</text><line style="stroke:#181818;stroke-width:0.5;" x1="270" x2="340.2842" y1="701.2969" y2="701.2969"/><line style="stroke:#181818;stroke-width:0.5;" x1="270" x2="340.2842" y1="709.2969" y2="709.2969"/></g><!--class Abono--><g id="elem_Abono"><rect codeLine="30" fill="#F1F1F1" height="48" id="Abono" rx="2.5" ry="2.5" style="stroke:#181818;stroke-width:0.5;" width="76.4678" x="441" y="419.2969"/><ellipse cx="456" cy="435.2969" fill="#ADD1B2" rx="11" ry="11" style="stroke:#181818;stroke-width:1.0;"/><path d="M458.9688,440.9375 Q458.3906,441.2344 457.75,441.375 Q457.1094,441.5313 456.4063,441.5313 Q453.9063,441.5313 452.5781,439.8906 Q451.2656,438.2344 451.2656,435.1094 Q451.2656,431.9844 452.5781,430.3281 Q453.9063,428.6719 456.4063,428.6719 Q457.1094,428.6719 457.75,428.8281 Q458.4063,428.9844 458.9688,429.2813 L458.9688,432 Q458.3438,431.4219 457.75,431.1563 Q457.1563,430.875 456.5313,430.875 Q455.1875,430.875 454.5,431.9531 Q453.8125,433.0156 453.8125,435.1094 Q453.8125,437.2031 454.5,438.2813 Q455.1875,439.3438 456.5313,439.3438 Q457.1563,439.3438 457.75,439.0781 Q458.3438,438.7969 458.9688,438.2188 L458.9688,440.9375 Z " fill="#000000"/><text fill="#000000" font-family="sans-serif" font-size="14" lengthAdjust="spacing" textLength="44.4678" x="470" y="440.1436">Abono</text><line style="stroke:#181818;stroke-width:0.5;" x1="442" x2="516.4678" y1="451.2969" y2="451.2969"/><line style="stroke:#181818;stroke-width:0.5;" x1="442" x2="516.4678" y1="459.2969" y2="459.2969"/></g><!--class Flota--><g id="elem_Flota"><rect codeLine="33" fill="#F1F1F1" height="48" id="Flota" rx="2.5" ry="2.5" style="stroke:#181818;stroke-width:0.5;" width="66.5762" x="319.5" y="169.2969"/><ellipse cx="334.5" cy="185.2969" fill="#ADD1B2" rx="11" ry="11" style="stroke:#181818;stroke-width:1.0;"/><path d="M337.4688,190.9375 Q336.8906,191.2344 336.25,191.375 Q335.6094,191.5313 334.9063,191.5313 Q332.4063,191.5313 331.0781,189.8906 Q329.7656,188.2344 329.7656,185.1094 Q329.7656,181.9844 331.0781,180.3281 Q332.4063,178.6719 334.9063,178.6719 Q335.6094,178.6719 336.25,178.8281 Q336.9063,178.9844 337.4688,179.2813 L337.4688,182 Q336.8438,181.4219 336.25,181.1563 Q335.6563,180.875 335.0313,180.875 Q333.6875,180.875 333,181.9531 Q332.3125,183.0156 332.3125,185.1094 Q332.3125,187.2031 333,188.2813 Q333.6875,189.3438 335.0313,189.3438 Q335.6563,189.3438 336.25,189.0781 Q336.8438,188.7969 337.4688,188.2188 L337.4688,190.9375 Z " fill="#000000"/><text fill="#000000" font-family="sans-serif" font-size="14" lengthAdjust="spacing" textLength="34.5762" x="348.5" y="190.1436">Flota</text><line style="stroke:#181818;stroke-width:0.5;" x1="320.5" x2="385.0762" y1="201.2969" y2="201.2969"/><line style="stroke:#181818;stroke-width:0.5;" x1="320.5" x2="385.0762" y1="209.2969" y2="209.2969"/></g><!--class MetodoPago--><g id="elem_MetodoPago"><rect codeLine="36" fill="#F1F1F1" height="48" id="MetodoPago" rx="2.5" ry="2.5" style="stroke:#181818;stroke-width:0.5;" width="118.6729" x="398.5" y="544.2969"/><ellipse cx="413.5" cy="560.2969" fill="#ADD1B2" rx="11" ry="11" style="stroke:#181818;stroke-width:1.0;"/><path d="M416.4688,565.9375 Q415.8906,566.2344 415.25,566.375 Q414.6094,566.5313 413.9063,566.5313 Q411.4063,566.5313 410.0781,564.8906 Q408.7656,563.2344 408.7656,560.1094 Q408.7656,556.9844 410.0781,555.3281 Q411.4063,553.6719 413.9063,553.6719 Q414.6094,553.6719 415.25,553.8281 Q415.9063,553.9844 416.4688,554.2813 L416.4688,557 Q415.8438,556.4219 415.25,556.1563 Q414.6563,555.875 414.0313,555.875 Q412.6875,555.875 412,556.9531 Q411.3125,558.0156 411.3125,560.1094 Q411.3125,562.2031 412,563.2813 Q412.6875,564.3438 414.0313,564.3438 Q414.6563,564.3438 415.25,564.0781 Q415.8438,563.7969 416.4688,563.2188 L416.4688,565.9375 Z " fill="#000000"/><text fill="#000000" font-family="sans-serif" font-size="14" lengthAdjust="spacing" textLength="86.6729" x="427.5" y="565.1436">MetodoPago</text><line style="stroke:#181818;stroke-width:0.5;" x1="399.5" x2="516.1729" y1="576.2969" y2="576.2969"/><line style="stroke:#181818;stroke-width:0.5;" x1="399.5" x2="516.1729" y1="584.2969" y2="584.2969"/></g><!--link Ruta to Horario--><g id="link_Ruta_Horario"><path codeLine="39" d="M49,342.4369 C49,364.4269 49,391.3069 49,413.2669 " fill="none" id="Ruta-to-Horario" style="stroke:#181818;stroke-width:1.0;"/><polygon fill="#181818" points="49,419.2669,53,410.2669,49,414.2669,45,410.2669,49,419.2669" style="stroke:#181818;stroke-width:1.0;"/><text fill="#000000" font-family="sans-serif" font-size="13" lengthAdjust="spacing" textLength="32.9443" x="50" y="385.3638">tiene</text></g><!--link Conductor to Ruta--><g id="link_Conductor_Ruta"><path codeLine="40" d="M152.84,211.7369 C132.61,220.2569 110.22,232.0169 93,247.2969 C78.4,260.2569 69.6048,273.8462 62.0348,288.7662 " fill="none" id="Conductor-to-Ruta" style="stroke:#181818;stroke-width:1.0;"/><polygon fill="#181818" points="59.32,294.1169,66.9593,287.9007,61.5823,289.658,59.8251,284.281,59.32,294.1169" style="stroke:#181818;stroke-width:1.0;"/><text fill="#000000" font-family="sans-serif" font-size="13" lengthAdjust="spacing" textLength="34.874" x="94" y="260.3638">sigue</text></g><!--link Conductor to Incidencia--><g id="link_Conductor_Incidencia"><path codeLine="41" d="M210.17,217.6269 C220.68,265.0169 243.1213,366.1691 253.5813,413.3491 " fill="none" id="Conductor-to-Incidencia" style="stroke:#181818;stroke-width:1.0;"/><polygon fill="#181818" points="254.88,419.2069,256.8371,409.5544,253.7978,414.3254,249.0268,411.286,254.88,419.2069" style="stroke:#181818;stroke-width:1.0;"/><text fill="#000000" font-family="sans-serif" font-size="13" lengthAdjust="spacing" textLength="47.9565" x="239" y="322.8638">reporta</text></g><!--link Conductor to Vehiculo--><g id="link_Conductor_Vehiculo"><path codeLine="42" d="M236.05,217.5669 C254.52,231.3069 278.47,248.9669 300,264.2969 C313.88,274.1869 324.3796,281.4867 337.7696,290.6567 " fill="none" id="Conductor-to-Vehiculo" style="stroke:#181818;stroke-width:1.0;"/><polygon fill="#181818" points="342.72,294.0469,337.5546,285.6613,338.5947,291.2217,333.0343,292.2618,342.72,294.0469" style="stroke:#181818;stroke-width:1.0;"/><text fill="#000000" font-family="sans-serif" font-size="13" lengthAdjust="spacing" textLength="54.9771" x="301" y="260.3638">conduce</text></g><!--link Vehiculo to Incidencia--><g id="link_Vehiculo_Incidencia"><path codeLine="43" d="M352.23,342.3769 C342.62,351.5269 331.64,362.2469 322,372.2969 C307.39,387.5269 295.555,400.8087 283.585,414.6487 " fill="none" id="Vehiculo-to-Incidencia" style="stroke:#181818;stroke-width:1.0;"/><polygon fill="#181818" points="279.66,419.1869,288.5729,414.9963,282.9308,415.4051,282.522,409.763,279.66,419.1869" style="stroke:#181818;stroke-width:1.0;"/><text fill="#000000" font-family="sans-serif" font-size="13" lengthAdjust="spacing" textLength="32.9316" x="323" y="385.3638">sufre</text></g><!--reverse link Flota to Vehiculo--><g id="link_Flota_Vehiculo"><path codeLine="44" d="M359.8129,229.2138 C364.1129,251.2038 368.22,272.3069 372.51,294.2669 " fill="none" id="Flota-backto-Vehiculo" style="stroke:#181818;stroke-width:1.0;"/><polygon fill="#181818" points="357.51,217.4369,354.7358,224.093,359.8129,229.2138,362.5871,222.5577,357.51,217.4369" style="stroke:#181818;stroke-width:1.0;"/></g><!--link Servicio to Ruta--><g id="link_Servicio_Ruta"><path codeLine="45" d="M65.31,92.6269 C61.87,140.0169 54.5338,241.0426 51.1138,288.2226 " fill="none" id="Servicio-to-Ruta" style="stroke:#181818;stroke-width:1.0;"/><polygon fill="#181818" points="50.68,294.2069,55.3202,285.5196,51.0415,289.22,47.3412,284.9412,50.68,294.2069" style="stroke:#181818;stroke-width:1.0;"/><text fill="#000000" font-family="sans-serif" font-size="13" lengthAdjust="spacing" textLength="41.0186" x="61" y="197.8638">ofrece</text></g><!--link Servicio to Flota--><g id="link_Servicio_Flota"><path codeLine="46" d="M111.06,88.2469 C168.41,112.9069 261.888,153.1167 313.678,175.3867 " fill="none" id="Servicio-to-Flota" style="stroke:#181818;stroke-width:1.0;"/><polygon fill="#181818" points="319.19,177.7569,312.5021,170.5269,314.5967,175.7817,309.3419,177.8763,319.19,177.7569" style="stroke:#181818;stroke-width:1.0;"/><text fill="#000000" font-family="sans-serif" font-size="13" lengthAdjust="spacing" textLength="41.0186" x="229" y="135.3638">ofrece</text></g><!--link Conductor to Persona--><g id="link_Conductor_Persona"><path codeLine="47" d="M189.18,217.6569 C174.53,241.5869 155,280.4169 155,317.2969 C155,317.2969 155,317.2969 155,569.2969 C155,604.4869 162.6177,638.612 169.3777,663.172 " fill="none" id="Conductor-to-Persona" style="stroke:#181818;stroke-width:1.0;"/><polygon fill="#181818" points="170.97,668.9569,172.4382,659.2181,169.6431,664.1361,164.725,661.3411,170.97,668.9569" style="stroke:#181818;stroke-width:1.0;"/></g><!--link Pasajero to Persona--><g id="link_Pasajero_Persona"><path codeLine="48" d="M258.38,592.4369 C240.68,614.4269 217.9714,642.6323 200.3014,664.5923 " fill="none" id="Pasajero-to-Persona" style="stroke:#181818;stroke-width:1.0;"/><polygon fill="#181818" points="196.54,669.2669,205.2985,664.7626,199.6745,665.3714,199.0657,659.7474,196.54,669.2669" style="stroke:#181818;stroke-width:1.0;"/></g><!--link Pasajero to Vehiculo--><g id="link_Pasajero_Vehiculo"><path codeLine="49" d="M298.94,544.1169 C306.41,535.2969 314.31,524.8269 320,514.2969 C351.12,456.7469 366.0648,386.1221 372.4848,348.3421 " fill="none" id="Pasajero-to-Vehiculo" style="stroke:#181818;stroke-width:1.0;"/><polygon fill="#181818" points="373.49,342.4269,368.0388,350.6296,372.6524,347.3562,375.9257,351.9698,373.49,342.4269" style="stroke:#181818;stroke-width:1.0;"/><text fill="#000000" font-family="sans-serif" font-size="13" lengthAdjust="spacing" textLength="22.9785" x="358" y="447.8638">usa</text></g><!--link Incidencia to Pasajero--><g id="link_Incidencia_Pasajero"><path codeLine="50" d="M263.2,467.4369 C266.24,489.4269 269.9572,516.3636 272.9972,538.3236 " fill="none" id="Incidencia-to-Pasajero" style="stroke:#181818;stroke-width:1.0;"/><polygon fill="#181818" points="273.82,544.2669,276.5481,534.8034,273.1344,539.3141,268.6237,535.9004,273.82,544.2669" style="stroke:#181818;stroke-width:1.0;"/><text fill="#000000" font-family="sans-serif" font-size="13" lengthAdjust="spacing" textLength="40.752" x="271" y="510.3638">afecta</text></g><!--link Pasajero to Tarifa--><g id="link_Pasajero_Tarifa"><path codeLine="51" d="M282.27,592.4369 C287.27,614.4269 293.428,641.4566 298.428,663.4166 " fill="none" id="Pasajero-to-Tarifa" style="stroke:#181818;stroke-width:1.0;"/><polygon fill="#181818" points="299.76,669.2669,301.6621,659.6034,298.65,664.3916,293.8618,661.3795,299.76,669.2669" style="stroke:#181818;stroke-width:1.0;"/><text fill="#000000" font-family="sans-serif" font-size="13" lengthAdjust="spacing" textLength="32.4365" x="294" y="635.3638">paga</text></g><!--link MetodoPago to Tarifa--><g id="link_MetodoPago_Tarifa"><path codeLine="52" d="M429.22,592.4369 C401.87,614.4269 365.6358,643.547 338.3258,665.507 " fill="none" id="MetodoPago-to-Tarifa" style="stroke:#181818;stroke-width:1.0;"/><polygon fill="#181818" points="333.65,669.2669,343.1703,666.7443,337.5465,666.1337,338.1572,660.5099,333.65,669.2669" style="stroke:#181818;stroke-width:1.0;"/></g><!--link Abono to MetodoPago--><g id="link_Abono_MetodoPago"><path codeLine="53" d="M475.05,467.4369 C471.3,489.4269 466.69,516.3925 462.94,538.3525 " fill="none" id="Abono-to-MetodoPago" style="stroke:#181818;stroke-width:1.0;"/><polygon fill="#181818" points="461.93,544.2669,467.3879,536.0686,462.7716,539.3382,459.502,534.722,461.93,544.2669" style="stroke:#181818;stroke-width:1.0;"/></g><!--SRC=[TL7BIiKm4DtFLynQw0za8SWLqOLGLDoFwRH6QkUIXnlntyrDxqqp5JS9EO_Xd4bqSMQyTJHv-YGS60yp1Gu0Djy1xyMJTuBVy7E1dbAazltC_ijPhJd8CYGRnRVWAxyxcsObV5Yi6pWVQcHFWJxOAsNFFiYYP2yvsgYGcpTPbEjk5ftsaQCCqjCa1Inbkkww5ZKO7IyCMuCJMsG6WvlIdceQ6FHy51zf9wd53Tf2C5JepuYGHi-mvhxgkcg6kkSca6HjdgQerLev7UMyHQWR_XTiGgT0q6GibelK88riuyvy_Xc3Hve8jfqt9An_TG8s_XS0]--></g></svg>