<svg xmlns="http://www.w3.org/2000/svg" xmlns:xlink="http://www.w3.org/1999/xlink" contentStyleType="text/css" height="420px" preserveAspectRatio="none" style="width:1405px;height:420px;background:#FFFFFF;" version="1.1" viewBox="0 0 1405 420" width="1405px" zoomAndPan="magnify"><title>Diagrama de Objetos</title><defs/><g><text fill="#000000" font-family="sans-serif" font-size="14" font-weight="bold" lengthAdjust="spacing" textLength="166.4004" x="612.7241" y="22.9951">Diagrama de Objetos</text><g id="elem_Horario"><rect fill="#F1F1F1" height="60.8906" style="stroke:#181818;stroke-width:0.5;" width="145.7656" x="7" y="344.2969"/><text fill="#000000" font-family="sans-serif" font-size="14" lengthAdjust="spacing" textLength="51.6387" x="54.0635" y="359.292">Horario</text><line style="stroke:#181818;stroke-width:0.5;" x1="8" x2="151.7656" y1="364.5938" y2="364.5938"/><text fill="#000000" font-family="sans-serif" font-size="14" lengthAdjust="spacing" textLength="133.7656" x="13" y="381.5889">horaInicio = "9:00"</text><text fill="#000000" font-family="sans-serif" font-size="14" lengthAdjust="spacing" textLength="126.4443" x="13" y="397.8857">horaFin = "21:00"</text></g><g id="elem_Ruta1"><rect fill="#F1F1F1" height="44.5938" style="stroke:#181818;stroke-width:0.5;" width="56.4473" x="266" y="198.2969"/><text fill="#000000" font-family="sans-serif" font-size="14" lengthAdjust="spacing" textLength="41.5762" x="273.4355" y="213.292">Ruta1</text><line style="stroke:#181818;stroke-width:0.5;" x1="267" x2="321.4473" y1="218.5938" y2="218.5938"/><text fill="#000000" font-family="sans-serif" font-size="14" lengthAdjust="spacing" textLength="44.4473" x="272" y="235.5889">ID = 1</text></g><g id="elem_Parada1"><rect fill="#F1F1F1" height="44.5938" style="stroke:#181818;stroke-width:0.5;" width="211.2061" x="188.5" y="352.2969"/><text fill="#000000" font-family="sans-serif" font-size="14" lengthAdjust="spacing" textLength="57.7295" x="265.2383" y="367.292">Parada1</text><line style="stroke:#181818;stroke-width:0.5;" x1="189.5" x2="398.7061" y1="372.5938" y2="372.5938"/><text fill="#000000" font-family="sans-serif" font-size="14" lengthAdjust="spacing" textLength="199.2061" x="194.5" y="389.5889">ubicacion = "Ayuntamiento"</text></g><g id="elem_Parada2"><rect fill="#F1F1F1" height="44.5938" style="stroke:#181818;stroke-width:0.5;" width="172.0293" x="435" y="352.2969"/><text fill="#000000" font-family="sans-serif" font-size="14" lengthAdjust="spacing" textLength="57.7295" x="492.1499" y="367.292">Parada2</text><line style="stroke:#181818;stroke-width:0.5;" x1="436" x2="606.0293" y1="372.5938" y2="372.5938"/><text fill="#000000" font-family="sans-serif" font-size="14" lengthAdjust="spacing" textLength="160.0293" x="441" y="389.5889">ubicacion = "Catedral"</text></g><g id="elem_ServicioDiario"><rect fill="#F1F1F1" height="44.5938" style="stroke:#181818;stroke-width:0.5;" width="111.043" x="94.5" y="52.2969"/><text fill="#000000" font-family="sans-serif" font-size="14" lengthAdjust="spacing" textLength="97.043" x="101.5" y="67.292">ServicioDiario</text><line style="stroke:#181818;stroke-width:0.5;" x1="95.5" x2="204.543" y1="72.5938" y2="72.5938"/><text fill="#000000" font-family="sans-serif" font-size="14" lengthAdjust="spacing" textLength="44.4473" x="100.5" y="89.5889">ID = 1</text></g><g id="elem_Conductor1"><rect fill="#F1F1F1" height="60.8906" style="stroke:#181818;stroke-width:0.5;" width="130.207" x="241" y="44.2969"/><text fill="#000000" font-family="sans-serif" font-size="14" lengthAdjust="spacing" textLength="81.3887" x="265.4092" y="59.292">Conductor1</text><line style="stroke:#181818;stroke-width:0.5;" x1="242" x2="370.207" y1="64.5938" y2="64.5938"/><text fill="#000000" font-family="sans-serif" font-size="14" lengthAdjust="spacing" textLength="71.1689" x="247" y="81.5889">ID = 1234</text><text fill="#000000" font-family="sans-serif" font-size="14" lengthAdjust="spacing" textLength="118.207" x="247" y="97.8857">nombre = "Alex"</text></g><g id="elem_Conductor2"><rect fill="#F1F1F1" height="60.8906" style="stroke:#181818;stroke-width:0.5;" width="138.2051" x="545" y="44.2969"/><text fill="#000000" font-family="sans-serif" font-size="14" lengthAdjust="spacing" textLength="81.3887" x="573.4082" y="59.292">Conductor2</text><line style="stroke:#181818;stroke-width:0.5;" x1="546" x2="682.2051" y1="64.5938" y2="64.5938"/><text fill="#000000" font-family="sans-serif" font-size="14" lengthAdjust="spacing" textLength="71.1689" x="551" y="81.5889">ID = 4321</text><text fill="#000000" font-family="sans-serif" font-size="14" lengthAdjust="spacing" textLength="126.2051" x="551" y="97.8857">nombre = "Pablo"</text></g><g id="elem_Vehiculo1"><rect fill="#F1F1F1" height="77.1875" style="stroke:#181818;stroke-width:0.5;" width="122.127" x="388" y="182.2969"/><text fill="#000000" font-family="sans-serif" font-size="14" lengthAdjust="spacing" textLength="68.8857" x="414.6206" y="197.292">Vehiculo1</text><line style="stroke:#181818;stroke-width:0.5;" x1="389" x2="509.127" y1="202.5938" y2="202.5938"/><text fill="#000000" font-family="sans-serif" font-size="14" lengthAdjust="spacing" textLength="86.1123" x="394" y="219.5889">tipo = "Bus"</text><text fill="#000000" font-family="sans-serif" font-size="14" lengthAdjust="spacing" textLength="110.127" x="394" y="235.8857">capacidad = 50</text><text fill="#000000" font-family="sans-serif" font-size="14" lengthAdjust="spacing" textLength="44.4473" x="394" y="252.1826">ID = 1</text></g><g id="elem_Vehiculo2"><rect fill="#F1F1F1" height="77.1875" style="stroke:#181818;stroke-width:0.5;" width="122.127" x="569" y="182.2969"/><text fill="#000000" font-family="sans-serif" font-size="14" lengthAdjust="spacing" textLength="68.8857" x="595.6206" y="197.292">Vehiculo2</text><line style="stroke:#181818;stroke-width:0.5;" x1="570" x2="690.127" y1="202.5938" y2="202.5938"/><text fill="#000000" font-family="sans-serif" font-size="14" lengthAdjust="spacing" textLength="86.1123" x="575" y="219.5889">tipo = "Bus"</text><text fill="#000000" font-family="sans-serif" font-size="14" lengthAdjust="spacing" textLength="110.127" x="575" y="235.8857">capacidad = 40</text><text fill="#000000" font-family="sans-serif" font-size="14" lengthAdjust="spacing" textLength="44.4473" x="575" y="252.1826">ID = 2</text></g><g id="elem_Incidencia1"><rect fill="#F1F1F1" height="77.1875" style="stroke:#181818;stroke-width:0.5;" width="157.626" x="665" y="336.2969"/><text fill="#000000" font-family="sans-serif" font-size="14" lengthAdjust="spacing" textLength="80.0352" x="703.7954" y="351.292">Incidencia1</text><line style="stroke:#181818;stroke-width:0.5;" x1="666" x2="821.626" y1="356.5938" y2="356.5938"/><text fill="#000000" font-family="sans-serif" font-size="14" lengthAdjust="spacing" textLength="122.4932" x="671" y="373.5889">tipo = "Averiado"</text><text fill="#000000" font-family="sans-serif" font-size="14" lengthAdjust="spacing" textLength="124.4414" x="671" y="389.8857">estado = "Activo"</text><text fill="#000000" font-family="sans-serif" font-size="14" lengthAdjust="spacing" textLength="145.626" x="671" y="406.1826">urgencia = "M&#237;nima"</text></g><g id="elem_Pasajero1"><rect fill="#F1F1F1" height="60.8906" style="stroke:#181818;stroke-width:0.5;" width="138.7109" x="718.5" y="44.2969"/><text fill="#000000" font-family="sans-serif" font-size="14" lengthAdjust="spacing" textLength="68.626" x="753.5425" y="59.292">Pasajero1</text><line style="stroke:#181818;stroke-width:0.5;" x1="719.5" x2="856.2109" y1="64.5938" y2="64.5938"/><text fill="#000000" font-family="sans-serif" font-size="14" lengthAdjust="spacing" textLength="90.6172" x="724.5" y="81.5889">asiento = 7C</text><text fill="#000000" font-family="sans-serif" font-size="14" lengthAdjust="spacing" textLength="126.7109" x="724.5" y="97.8857">nombre = "Mario"</text></g><g id="elem_Pasajero2"><rect fill="#F1F1F1" height="60.8906" style="stroke:#181818;stroke-width:0.5;" width="123.8633" x="1084" y="44.2969"/><text fill="#000000" font-family="sans-serif" font-size="14" lengthAdjust="spacing" textLength="68.626" x="1111.6187" y="59.292">Pasajero2</text><line style="stroke:#181818;stroke-width:0.5;" x1="1085" x2="1206.8633" y1="64.5938" y2="64.5938"/><text fill="#000000" font-family="sans-serif" font-size="14" lengthAdjust="spacing" textLength="90.4463" x="1090" y="81.5889">asiento = 8B</text><text fill="#000000" font-family="sans-serif" font-size="14" lengthAdjust="spacing" textLength="111.8633" x="1090" y="97.8857">nombre = "Luz"</text></g><g id="elem_Flota"><rect fill="#F1F1F1" height="44.5938" style="stroke:#181818;stroke-width:0.5;" width="102.5693" x="406.5" y="52.2969"/><text fill="#000000" font-family="sans-serif" font-size="14" lengthAdjust="spacing" textLength="34.5762" x="440.4966" y="67.292">Flota</text><line style="stroke:#181818;stroke-width:0.5;" x1="407.5" x2="508.0693" y1="72.5938" y2="72.5938"/><text fill="#000000" font-family="sans-serif" font-size="14" lengthAdjust="spacing" textLength="90.5693" x="412.5" y="89.5889">empresa: UC</text></g><g id="elem_Tarifa1"><rect fill="#F1F1F1" height="44.5938" style="stroke:#181818;stroke-width:0.5;" width="127.999" x="853" y="198.2969"/><text fill="#000000" font-family="sans-serif" font-size="14" lengthAdjust="spacing" textLength="49.1914" x="892.4038" y="213.292">Tarifa1</text><line style="stroke:#181818;stroke-width:0.5;" x1="854" x2="979.999" y1="218.5938" y2="218.5938"/><text fill="#000000" font-family="sans-serif" font-size="14" lengthAdjust="spacing" textLength="115.999" x="859" y="235.5889">tipo = "Diurna1"</text></g><g id="elem_Tarifa2"><rect fill="#F1F1F1" height="44.5938" style="stroke:#181818;stroke-width:0.5;" width="127.999" x="1197" y="198.2969"/><text fill="#000000" font-family="sans-serif" font-size="14" lengthAdjust="spacing" textLength="49.1914" x="1236.4038" y="213.292">Tarifa2</text><line style="stroke:#181818;stroke-width:0.5;" x1="1198" x2="1323.999" y1="218.5938" y2="218.5938"/><text fill="#000000" font-family="sans-serif" font-size="14" lengthAdjust="spacing" textLength="115.999" x="1203" y="235.5889">tipo = "Diurna2"</text></g><g id="elem_Abono1"><rect fill="#F1F1F1" height="60.8906" style="stroke:#181818;stroke-width:0.5;" width="155.8486" x="893" y="44.2969"/><text fill="#000000" font-family="sans-serif" font-size="14" lengthAdjust="spacing" textLength="53.375" x="944.2368" y="59.292">Abono1</text><line style="stroke:#181818;stroke-width:0.5;" x1="894" x2="1047.8486" y1="64.5938" y2="64.5938"/><text fill="#000000" font-family="sans-serif" font-size="14" lengthAdjust="spacing" textLength="136.7256" x="899" y="81.5889">metodo = "Tarjeta"</text><text fill="#000000" font-family="sans-serif" font-size="14" lengthAdjust="spacing" textLength="143.8486" x="899" y="97.8857">cantidad = "5viajes"</text></g><g id="elem_Abono2"><rect fill="#F1F1F1" height="60.8906" style="stroke:#181818;stroke-width:0.5;" width="155.8486" x="1243" y="44.2969"/><text fill="#000000" font-family="sans-serif" font-size="14" lengthAdjust="spacing" textLength="53.375" x="1294.2368" y="59.292">Abono2</text><line style="stroke:#181818;stroke-width:0.5;" x1="1244" x2="1397.8486" y1="64.5938" y2="64.5938"/><text fill="#000000" font-family="sans-serif" font-size="14" lengthAdjust="spacing" textLength="136.7256" x="1249" y="81.5889">metodo = "Tarjeta"</text><text fill="#000000" font-family="sans-serif" font-size="14" lengthAdjust="spacing" textLength="143.8486" x="1249" y="97.8857">cantidad = "2viajes"</text></g><!--link Ruta1 to Horario--><g id="link_Ruta1_Horario"><path codeLine="85" d="M265.58,241.9769 C228.75,268.1469 169.1017,310.5124 126.6817,340.6424 " fill="none" id="Ruta1-to-Horario" style="stroke:#181818;stroke-width:1.0;"/><polygon fill="#181818" points="121.79,344.1169,131.4438,342.1663,125.8664,341.2215,126.8112,335.6441,121.79,344.1169" style="stroke:#181818;stroke-width:1.0;"/><text fill="#000000" font-family="sans-serif" font-size="13" lengthAdjust="spacing" textLength="32.9443" x="195" y="302.3638">tiene</text></g><!--link Ruta1 to Parada1--><g id="link_Ruta1_Parada1"><path codeLine="86" d="M294,243.5769 C294,272.4669 294,317.1869 294,346.0569 " fill="none" id="Ruta1-to-Parada1" style="stroke:#181818;stroke-width:1.0;"/><polygon fill="#181818" points="294,352.0569,298,343.0569,294,347.0569,290,343.0569,294,352.0569" style="stroke:#181818;stroke-width:1.0;"/><text fill="#000000" font-family="sans-serif" font-size="13" lengthAdjust="spacing" textLength="32.9443" x="295" y="302.3638">tiene</text></g><!--link Ruta1 to Parada2--><g id="link_Ruta1_Parada2"><path codeLine="87" d="M322.29,240.7369 C364.6,269.0669 439.1543,318.9989 483.6943,348.8189 " fill="none" id="Ruta1-to-Parada2" style="stroke:#181818;stroke-width:1.0;"/><polygon fill="#181818" points="488.68,352.1569,483.4267,343.826,484.5252,349.3752,478.976,350.4737,488.68,352.1569" style="stroke:#181818;stroke-width:1.0;"/><text fill="#000000" font-family="sans-serif" font-size="13" lengthAdjust="spacing" textLength="32.9443" x="416" y="302.3638">tiene</text></g><!--link ServicioDiario to Ruta1--><g id="link_ServicioDiario_Ruta1"><path codeLine="88" d="M171.56,97.3569 C198.71,124.5069 240.8374,166.6342 268.0474,193.8442 " fill="none" id="ServicioDiario-to-Ruta1" style="stroke:#181818;stroke-width:1.0;"/><polygon fill="#181818" points="272.29,198.0869,268.7545,188.8945,268.7545,194.5513,263.0976,194.5513,272.29,198.0869" style="stroke:#181818;stroke-width:1.0;"/><text fill="#000000" font-family="sans-serif" font-size="13" lengthAdjust="spacing" textLength="41.0186" x="228" y="148.3638">ofrece</text></g><!--link Conductor1 to Ruta1--><g id="link_Conductor1_Ruta1"><path codeLine="89" d="M296.98,105.4869 C294.53,114.9269 292.22,125.4669 291,135.2969 C288.36,156.5669 289.1379,175.0842 290.7779,192.2042 " fill="none" id="Conductor1-to-Ruta1" style="stroke:#181818;stroke-width:1.0;"/><polygon fill="#181818" points="291.35,198.1769,294.4736,188.8365,290.8732,193.1997,286.51,189.5993,291.35,198.1769" style="stroke:#181818;stroke-width:1.0;"/><text fill="#000000" font-family="sans-serif" font-size="13" lengthAdjust="spacing" textLength="34.874" x="292" y="148.3638">sigue</text></g><!--link Conductor2 to Ruta1--><g id="link_Conductor2_Ruta1"><path codeLine="90" d="M550.92,105.4469 C519.55,119.9569 480.96,137.4469 446,152.2969 C412.58,166.4969 403.2,167.5869 370,182.2969 C353.99,189.3869 341.806,195.2925 327.606,202.4625 " fill="none" id="Conductor2-to-Ruta1" style="stroke:#181818;stroke-width:1.0;"/><polygon fill="#181818" points="322.25,205.1669,332.0869,204.6809,326.7133,202.9132,328.481,197.5397,322.25,205.1669" style="stroke:#181818;stroke-width:1.0;"/><text fill="#000000" font-family="sans-serif" font-size="13" lengthAdjust="spacing" textLength="34.874" x="485" y="148.3638">sigue</text></g><!--link Conductor1 to Vehiculo1--><g id="link_Conductor1_Vehiculo1"><path codeLine="91" d="M335.63,105.6369 C357.64,127.7969 383.5826,153.9191 407.2726,177.7791 " fill="none" id="Conductor1-to-Vehiculo1" style="stroke:#181818;stroke-width:1.0;"/><polygon fill="#181818" points="411.5,182.0369,407.9974,172.8319,407.9771,178.4887,402.3203,178.4685,411.5,182.0369" style="stroke:#181818;stroke-width:1.0;"/><text fill="#000000" font-family="sans-serif" font-size="13" lengthAdjust="spacing" textLength="54.9771" x="383" y="148.3638">conduce</text></g><!--link Conductor2 to Vehiculo2--><g id="link_Conductor2_Vehiculo2"><path codeLine="92" d="M616.44,105.6169 C617.67,119.7769 619.27,136.9269 621,152.2969 C622.08,161.9269 622.5966,166.3696 623.8866,176.0396 " fill="none" id="Conductor2-to-Vehiculo2" style="stroke:#181818;stroke-width:1.0;"/><polygon fill="#181818" points="624.68,181.9869,627.4548,172.537,624.0188,177.0308,619.525,173.5948,624.68,181.9869" style="stroke:#181818;stroke-width:1.0;"/><text fill="#000000" font-family="sans-serif" font-size="13" lengthAdjust="spacing" textLength="54.9771" x="622" y="148.3638">conduce</text></g><!--link Conductor2 to Incidencia1--><g id="link_Conductor2_Incidencia1"><path codeLine="93" d="M683.24,100.2869 C709.37,111.0369 734.6,123.8069 742,135.2969 C781.34,196.3969 769.1278,279.9942 756.6478,330.1842 " fill="none" id="Conductor2-to-Incidencia1" style="stroke:#181818;stroke-width:1.0;"/><polygon fill="#181818" points="755.2,336.0069,761.2536,328.2381,756.4065,331.1546,753.49,326.3076,755.2,336.0069" style="stroke:#181818;stroke-width:1.0;"/><text fill="#000000" font-family="sans-serif" font-size="13" lengthAdjust="spacing" textLength="47.9565" x="770" y="225.3638">reporta</text></g><!--link Vehiculo2 to Incidencia1--><g id="link_Vehiculo2_Incidencia1"><path codeLine="94" d="M658.18,259.3669 C675.72,282.7569 694.6,307.9269 712.15,331.3269 " fill="none" id="Vehiculo2-to-Incidencia1" style="stroke:#181818;stroke-width:1.0;"/><polygon fill="#181818" points="715.75,336.1269,713.55,326.5269,712.75,332.1269,707.15,331.3269,715.75,336.1269" style="stroke:#181818;stroke-width:1.0;"/><text fill="#000000" font-family="sans-serif" font-size="13" lengthAdjust="spacing" textLength="32.9316" x="692" y="302.3638">sufre</text></g><!--link Pasajero1 to Vehiculo1--><g id="link_Pasajero1_Vehiculo1"><path codeLine="95" d="M754.01,105.4069 C733.98,121.4469 707.44,140.3769 681,152.2969 C626.95,176.6769 607.83,165.3669 551,182.2969 C537.62,186.2869 529.0935,189.0596 515.7135,193.8896 " fill="none" id="Pasajero1-to-Vehiculo1" style="stroke:#181818;stroke-width:1.0;"/><polygon fill="#181818" points="510.07,195.9269,519.8935,196.6334,514.773,194.2292,517.1772,189.1086,510.07,195.9269" style="stroke:#181818;stroke-width:1.0;"/><text fill="#000000" font-family="sans-serif" font-size="13" lengthAdjust="spacing" textLength="22.9785" x="711" y="148.3638">usa</text></g><!--link Flota to Vehiculo1--><g id="link_Flota_Vehiculo1"><path codeLine="96" d="M456.65,97.3569 C455.26,119.7169 453.4148,149.1286 451.7248,176.1286 " fill="none" id="Flota-to-Vehiculo1" style="stroke:#181818;stroke-width:1.0;"/><polygon fill="#181818" points="451.35,182.1169,455.9044,173.3843,451.6624,177.1266,447.92,172.8846,451.35,182.1169" style="stroke:#181818;stroke-width:1.0;"/></g><!--link Flota to Vehiculo2--><g id="link_Flota_Vehiculo2"><path codeLine="97" d="M492.05,97.3969 C508.26,108.1669 527.63,121.7569 544,135.2969 C561.42,149.7069 575.2285,162.7332 590.2485,177.9032 " fill="none" id="Flota-to-Vehiculo2" style="stroke:#181818;stroke-width:1.0;"/><polygon fill="#181818" points="594.47,182.1669,590.9802,172.957,590.9521,178.6138,585.2953,178.5857,594.47,182.1669" style="stroke:#181818;stroke-width:1.0;"/></g><!--link Pasajero1 to Tarifa1--><g id="link_Pasajero1_Tarifa1"><path codeLine="98" d="M814.73,105.6369 C839.38,133.1469 871.387,168.8775 893.447,193.5075 " fill="none" id="Pasajero1-to-Tarifa1" style="stroke:#181818;stroke-width:1.0;"/><polygon fill="#181818" points="897.45,197.9769,894.425,188.6041,894.1141,194.2524,888.4658,193.9415,897.45,197.9769" style="stroke:#181818;stroke-width:1.0;"/></g><!--link Abono1 to Tarifa1--><g id="link_Abono1_Tarifa1"><path codeLine="99" d="M959.81,105.6369 C949.49,133.1469 936.5275,167.7292 927.2875,192.3592 " fill="none" id="Abono1-to-Tarifa1" style="stroke:#181818;stroke-width:1.0;"/><polygon fill="#181818" points="925.18,197.9769,932.0864,190.9553,926.9362,193.2955,924.5961,188.1453,925.18,197.9769" style="stroke:#181818;stroke-width:1.0;"/><text fill="#000000" font-family="sans-serif" font-size="13" lengthAdjust="spacing" textLength="67.3931" x="949" y="148.3638">se emplea</text></g><!--link Pasajero2 to Vehiculo2--><g id="link_Pasajero2_Vehiculo2"><path codeLine="100" d="M1109.38,105.3169 C1086.51,122.0669 1055.67,141.7369 1025,152.2969 C897.88,196.0569 854.6,150.4069 724,182.2969 C713.16,184.9469 707.5493,186.5105 696.7593,190.4905 " fill="none" id="Pasajero2-to-Vehiculo2" style="stroke:#181818;stroke-width:1.0;"/><polygon fill="#181818" points="691.13,192.5669,700.9582,193.2051,695.821,190.8365,698.1896,185.6994,691.13,192.5669" style="stroke:#181818;stroke-width:1.0;"/><text fill="#000000" font-family="sans-serif" font-size="13" lengthAdjust="spacing" textLength="22.9785" x="1062" y="148.3638">usa</text></g><!--link Pasajero2 to Tarifa2--><g id="link_Pasajero2_Tarifa2"><path codeLine="101" d="M1169.83,105.6369 C1191.8,133.1469 1220.1669,168.6576 1239.8269,193.2876 " fill="none" id="Pasajero2-to-Tarifa2" style="stroke:#181818;stroke-width:1.0;"/><polygon fill="#181818" points="1243.57,197.9769,1241.0816,188.4476,1240.4508,194.0691,1234.8292,193.4383,1243.57,197.9769" style="stroke:#181818;stroke-width:1.0;"/></g><!--link Abono2 to Tarifa2--><g id="link_Abono2_Tarifa2"><path codeLine="102" d="M1308.57,105.6369 C1297.1,133.1469 1282.6572,167.8082 1272.3972,192.4382 " fill="none" id="Abono2-to-Tarifa2" style="stroke:#181818;stroke-width:1.0;"/><polygon fill="#181818" points="1270.09,197.9769,1277.2433,191.207,1272.0127,193.3613,1269.8584,188.1307,1270.09,197.9769" style="stroke:#181818;stroke-width:1.0;"/><text fill="#000000" font-family="sans-serif" font-size="13" lengthAdjust="spacing" textLength="67.3931" x="1295" y="148.3638">se emplea</text></g><!--SRC=[ZLFRRjim37tNLmX-Bn2hARePs80qGT40BLhizaxRRAh2bW9TWdN3FcbViHyRVOcjo6vHFnZsuJb7f4WwwIha6max0pNm4lbz_enEMyOqVHIEtsW3Hch-ct5wdkXlgsH1m2UUVCmMYsJ0hwLgG96sw9_1uOjtaFRwxOOeQH1y00Fb4FQvB83CMwFLYrSEQedAwMGY4NEIDJWi3LGX_IkQGvCm5JdMCSbZhLNf2wVDQQRYVDd-ALtd1jkiAloPp0b5A5oUYpGIFa1UdTJn0vzauIjzFD79VNkhLzvsbrh0dYeheIJqOZ6Vzz54lCTa6PY8m6IhY87qWZYNrG6DX59tNcWTVRTuuUIXHxtPjTe6l_ltLyaQJjjbuHdDK2ROjgF4lbn7LtJNT6XEAoRQ3rUHzjR_2fNNbNRGgx3U6xIGyUzh7b2-qMcFauetqXi5QJ8XYbcY28chNAkXpfhMgBiiqjDEmR4VolNjI2uEaigp4mlnVWiHMB1kqyxEFWzRcr6wg32871VkjOWO8j7YD9IEd77zQB105YnD6BLovuEWU2lOASTLo7ZHXYRwST1VfOHZd763UsqSi54uvLXFXR1nGkDSl0NEkb4w2SrW8hBffulrCn50pRdO36M5mCO9ZukaiwDeFuUidv402Yt_0m00]--></g></svg>