<svg xmlns="http://www.w3.org/2000/svg" xmlns:xlink="http://www.w3.org/1999/xlink" contentStyleType="text/css" height="562px" preserveAspectRatio="none" style="width:629px;height:562px;background:#FFFFFF;" version="1.1" viewBox="0 0 629 562" width="629px" zoomAndPan="magnify"><defs/><g><!--class Horario--><g id="elem_Horario"><rect codeLine="1" fill="#F1F1F1" height="48" id="Horario" rx="2.5" ry="2.5" style="stroke:#181818;stroke-width:0.5;" width="83.6387" x="427" y="257"/><ellipse cx="442" cy="273" fill="#ADD1B2" rx="11" ry="11" style="stroke:#181818;stroke-width:1.0;"/><path d="M444.9688,278.6406 Q444.3906,278.9375 443.75,279.0781 Q443.1094,279.2344 442.4063,279.2344 Q439.9063,279.2344 438.5781,277.5938 Q437.2656,275.9375 437.2656,272.8125 Q437.2656,269.6875 438.5781,268.0313 Q439.9063,266.375 442.4063,266.375 Q443.1094,266.375 443.75,266.5313 Q444.4063,266.6875 444.9688,266.9844 L444.9688,269.7031 Q444.3438,269.125 443.75,268.8594 Q443.1563,268.5781 442.5313,268.5781 Q441.1875,268.5781 440.5,269.6563 Q439.8125,270.7188 439.8125,272.8125 Q439.8125,274.9063 440.5,275.9844 Q441.1875,277.0469 442.5313,277.0469 Q443.1563,277.0469 443.75,276.7813 Q444.3438,276.5 444.9688,275.9219 L444.9688,278.6406 Z " fill="#000000"/><text fill="#000000" font-family="sans-serif" font-size="14" lengthAdjust="spacing" textLength="51.6387" x="456" y="277.8467">Horario</text><line style="stroke:#181818;stroke-width:0.5;" x1="428" x2="509.6387" y1="289" y2="289"/><line style="stroke:#181818;stroke-width:0.5;" x1="428" x2="509.6387" y1="297" y2="297"/></g><!--class Ruta--><g id="elem_Ruta"><rect codeLine="4" fill="#F1F1F1" height="48" id="Ruta" rx="2.5" ry="2.5" style="stroke:#181818;stroke-width:0.5;" width="64.6689" x="447.5" y="132"/><ellipse cx="462.5" cy="148" fill="#ADD1B2" rx="11" ry="11" style="stroke:#181818;stroke-width:1.0;"/><path d="M465.4688,153.6406 Q464.8906,153.9375 464.25,154.0781 Q463.6094,154.2344 462.9063,154.2344 Q460.4063,154.2344 459.0781,152.5938 Q457.7656,150.9375 457.7656,147.8125 Q457.7656,144.6875 459.0781,143.0313 Q460.4063,141.375 462.9063,141.375 Q463.6094,141.375 464.25,141.5313 Q464.9063,141.6875 465.4688,141.9844 L465.4688,144.7031 Q464.8438,144.125 464.25,143.8594 Q463.6563,143.5781 463.0313,143.5781 Q461.6875,143.5781 461,144.6563 Q460.3125,145.7188 460.3125,147.8125 Q460.3125,149.9063 461,150.9844 Q461.6875,152.0469 463.0313,152.0469 Q463.6563,152.0469 464.25,151.7813 Q464.8438,151.5 465.4688,150.9219 L465.4688,153.6406 Z " fill="#000000"/><text fill="#000000" font-family="sans-serif" font-size="14" lengthAdjust="spacing" textLength="32.6689" x="476.5" y="152.8467">Ruta</text><line style="stroke:#181818;stroke-width:0.5;" x1="448.5" x2="511.1689" y1="164" y2="164"/><line style="stroke:#181818;stroke-width:0.5;" x1="448.5" x2="511.1689" y1="172" y2="172"/></g><!--class Servicio--><g id="elem_Servicio"><rect codeLine="7" fill="#F1F1F1" height="48" id="Servicio" rx="2.5" ry="2.5" style="stroke:#181818;stroke-width:0.5;" width="87.583" x="357" y="7"/><ellipse cx="372" cy="23" fill="#ADD1B2" rx="11" ry="11" style="stroke:#181818;stroke-width:1.0;"/><path d="M374.9688,28.6406 Q374.3906,28.9375 373.75,29.0781 Q373.1094,29.2344 372.4063,29.2344 Q369.9063,29.2344 368.5781,27.5938 Q367.2656,25.9375 367.2656,22.8125 Q367.2656,19.6875 368.5781,18.0313 Q369.9063,16.375 372.4063,16.375 Q373.1094,16.375 373.75,16.5313 Q374.4063,16.6875 374.9688,16.9844 L374.9688,19.7031 Q374.3438,19.125 373.75,18.8594 Q373.1563,18.5781 372.5313,18.5781 Q371.1875,18.5781 370.5,19.6563 Q369.8125,20.7188 369.8125,22.8125 Q369.8125,24.9063 370.5,25.9844 Q371.1875,27.0469 372.5313,27.0469 Q373.1563,27.0469 373.75,26.7813 Q374.3438,26.5 374.9688,25.9219 L374.9688,28.6406 Z " fill="#000000"/><text fill="#000000" font-family="sans-serif" font-size="14" lengthAdjust="spacing" textLength="55.583" x="386" y="27.8467">Servicio</text><line style="stroke:#181818;stroke-width:0.5;" x1="358" x2="443.583" y1="39" y2="39"/><line style="stroke:#181818;stroke-width:0.5;" x1="358" x2="443.583" y1="47" y2="47"/></g><!--class Conductor--><g id="elem_Conductor"><rect codeLine="10" fill="#F1F1F1" height="48" id="Conductor" rx="2.5" ry="2.5" style="stroke:#181818;stroke-width:0.5;" width="104.4814" x="166" y="7"/><ellipse cx="181" cy="23" fill="#ADD1B2" rx="11" ry="11" style="stroke:#181818;stroke-width:1.0;"/><path d="M183.9688,28.6406 Q183.3906,28.9375 182.75,29.0781 Q182.1094,29.2344 181.4063,29.2344 Q178.9063,29.2344 177.5781,27.5938 Q176.2656,25.9375 176.2656,22.8125 Q176.2656,19.6875 177.5781,18.0313 Q178.9063,16.375 181.4063,16.375 Q182.1094,16.375 182.75,16.5313 Q183.4063,16.6875 183.9688,16.9844 L183.9688,19.7031 Q183.3438,19.125 182.75,18.8594 Q182.1563,18.5781 181.5313,18.5781 Q180.1875,18.5781 179.5,19.6563 Q178.8125,20.7188 178.8125,22.8125 Q178.8125,24.9063 179.5,25.9844 Q180.1875,27.0469 181.5313,27.0469 Q182.1563,27.0469 182.75,26.7813 Q183.3438,26.5 183.9688,25.9219 L183.9688,28.6406 Z " fill="#000000"/><text fill="#000000" font-family="sans-serif" font-size="14" lengthAdjust="spacing" textLength="72.4814" x="195" y="27.8467">Conductor</text><line style="stroke:#181818;stroke-width:0.5;" x1="167" x2="269.4814" y1="39" y2="39"/><line style="stroke:#181818;stroke-width:0.5;" x1="167" x2="269.4814" y1="47" y2="47"/></g><!--class Vehiculo--><g id="elem_Vehiculo"><rect codeLine="13" fill="#F1F1F1" height="48" id="Vehiculo" rx="2.5" ry="2.5" style="stroke:#181818;stroke-width:0.5;" width="91.9785" x="88" y="132"/><ellipse cx="103" cy="148" fill="#ADD1B2" rx="11" ry="11" style="stroke:#181818;stroke-width:1.0;"/><path d="M105.9688,153.6406 Q105.3906,153.9375 104.75,154.0781 Q104.1094,154.2344 103.4063,154.2344 Q100.9063,154.2344 99.5781,152.5938 Q98.2656,150.9375 98.2656,147.8125 Q98.2656,144.6875 99.5781,143.0313 Q100.9063,141.375 103.4063,141.375 Q104.1094,141.375 104.75,141.5313 Q105.4063,141.6875 105.9688,141.9844 L105.9688,144.7031 Q105.3438,144.125 104.75,143.8594 Q104.1563,143.5781 103.5313,143.5781 Q102.1875,143.5781 101.5,144.6563 Q100.8125,145.7188 100.8125,147.8125 Q100.8125,149.9063 101.5,150.9844 Q102.1875,152.0469 103.5313,152.0469 Q104.1563,152.0469 104.75,151.7813 Q105.3438,151.5 105.9688,150.9219 L105.9688,153.6406 Z " fill="#000000"/><text fill="#000000" font-family="sans-serif" font-size="14" lengthAdjust="spacing" textLength="59.9785" x="117" y="152.8467">Vehiculo</text><line style="stroke:#181818;stroke-width:0.5;" x1="89" x2="178.9785" y1="164" y2="164"/><line style="stroke:#181818;stroke-width:0.5;" x1="89" x2="178.9785" y1="172" y2="172"/></g><!--class Incidencia--><g id="elem_Incidencia"><rect codeLine="16" fill="#F1F1F1" height="48" id="Incidencia" rx="2.5" ry="2.5" style="stroke:#181818;stroke-width:0.5;" width="103.1279" x="153.5" y="257"/><ellipse cx="168.5" cy="273" fill="#ADD1B2" rx="11" ry="11" style="stroke:#181818;stroke-width:1.0;"/><path d="M171.4688,278.6406 Q170.8906,278.9375 170.25,279.0781 Q169.6094,279.2344 168.9063,279.2344 Q166.4063,279.2344 165.0781,277.5938 Q163.7656,275.9375 163.7656,272.8125 Q163.7656,269.6875 165.0781,268.0313 Q166.4063,266.375 168.9063,266.375 Q169.6094,266.375 170.25,266.5313 Q170.9063,266.6875 171.4688,266.9844 L171.4688,269.7031 Q170.8438,269.125 170.25,268.8594 Q169.6563,268.5781 169.0313,268.5781 Q167.6875,268.5781 167,269.6563 Q166.3125,270.7188 166.3125,272.8125 Q166.3125,274.9063 167,275.9844 Q167.6875,277.0469 169.0313,277.0469 Q169.6563,277.0469 170.25,276.7813 Q170.8438,276.5 171.4688,275.9219 L171.4688,278.6406 Z " fill="#000000"/><text fill="#000000" font-family="sans-serif" font-size="14" lengthAdjust="spacing" textLength="71.1279" x="182.5" y="277.8467">Incidencia</text><line style="stroke:#181818;stroke-width:0.5;" x1="154.5" x2="255.6279" y1="289" y2="289"/><line style="stroke:#181818;stroke-width:0.5;" x1="154.5" x2="255.6279" y1="297" y2="297"/></g><!--class Pasajero--><g id="elem_Pasajero"><rect codeLine="19" fill="#F1F1F1" height="48" id="Pasajero" rx="2.5" ry="2.5" style="stroke:#181818;stroke-width:0.5;" width="91.7188" x="96" y="382"/><ellipse cx="111" cy="398" fill="#ADD1B2" rx="11" ry="11" style="stroke:#181818;stroke-width:1.0;"/><path d="M113.9688,403.6406 Q113.3906,403.9375 112.75,404.0781 Q112.1094,404.2344 111.4063,404.2344 Q108.9063,404.2344 107.5781,402.5938 Q106.2656,400.9375 106.2656,397.8125 Q106.2656,394.6875 107.5781,393.0313 Q108.9063,391.375 111.4063,391.375 Q112.1094,391.375 112.75,391.5313 Q113.4063,391.6875 113.9688,391.9844 L113.9688,394.7031 Q113.3438,394.125 112.75,393.8594 Q112.1563,393.5781 111.5313,393.5781 Q110.1875,393.5781 109.5,394.6563 Q108.8125,395.7188 108.8125,397.8125 Q108.8125,399.9063 109.5,400.9844 Q110.1875,402.0469 111.5313,402.0469 Q112.1563,402.0469 112.75,401.7813 Q113.3438,401.5 113.9688,400.9219 L113.9688,403.6406 Z " fill="#000000"/><text fill="#000000" font-family="sans-serif" font-size="14" lengthAdjust="spacing" textLength="59.7188" x="125" y="402.8467">Pasajero</text><line style="stroke:#181818;stroke-width:0.5;" x1="97" x2="186.7188" y1="414" y2="414"/><line style="stroke:#181818;stroke-width:0.5;" x1="97" x2="186.7188" y1="422" y2="422"/></g><!--class Persona--><g id="elem_Persona"><rect codeLine="22" fill="#F1F1F1" height="48" id="Persona" rx="2.5" ry="2.5" style="stroke:#181818;stroke-width:0.5;" width="88.123" x="25" y="507"/><ellipse cx="40" cy="523" fill="#ADD1B2" rx="11" ry="11" style="stroke:#181818;stroke-width:1.0;"/><path d="M42.9688,528.6406 Q42.3906,528.9375 41.75,529.0781 Q41.1094,529.2344 40.4063,529.2344 Q37.9063,529.2344 36.5781,527.5938 Q35.2656,525.9375 35.2656,522.8125 Q35.2656,519.6875 36.5781,518.0313 Q37.9063,516.375 40.4063,516.375 Q41.1094,516.375 41.75,516.5313 Q42.4063,516.6875 42.9688,516.9844 L42.9688,519.7031 Q42.3438,519.125 41.75,518.8594 Q41.1563,518.5781 40.5313,518.5781 Q39.1875,518.5781 38.5,519.6563 Q37.8125,520.7188 37.8125,522.8125 Q37.8125,524.9063 38.5,525.9844 Q39.1875,527.0469 40.5313,527.0469 Q41.1563,527.0469 41.75,526.7813 Q42.3438,526.5 42.9688,525.9219 L42.9688,528.6406 Z " fill="#000000"/><text fill="#000000" font-family="sans-serif" font-size="14" lengthAdjust="spacing" textLength="56.123" x="54" y="527.8467">Persona</text><line style="stroke:#181818;stroke-width:0.5;" x1="26" x2="112.123" y1="539" y2="539"/><line style="stroke:#181818;stroke-width:0.5;" x1="26" x2="112.123" y1="547" y2="547"/></g><!--class Tarifa--><g id="elem_Tarifa"><rect codeLine="25" fill="#F1F1F1" height="48" id="Tarifa" rx="2.5" ry="2.5" style="stroke:#181818;stroke-width:0.5;" width="72.2842" x="177" y="507"/><ellipse cx="192" cy="523" fill="#ADD1B2" rx="11" ry="11" style="stroke:#181818;stroke-width:1.0;"/><path d="M194.9688,528.6406 Q194.3906,528.9375 193.75,529.0781 Q193.1094,529.2344 192.4063,529.2344 Q189.9063,529.2344 188.5781,527.5938 Q187.2656,525.9375 187.2656,522.8125 Q187.2656,519.6875 188.5781,518.0313 Q189.9063,516.375 192.4063,516.375 Q193.1094,516.375 193.75,516.5313 Q194.4063,516.6875 194.9688,516.9844 L194.9688,519.7031 Q194.3438,519.125 193.75,518.8594 Q193.1563,518.5781 192.5313,518.5781 Q191.1875,518.5781 190.5,519.6563 Q189.8125,520.7188 189.8125,522.8125 Q189.8125,524.9063 190.5,525.9844 Q191.1875,527.0469 192.5313,527.0469 Q193.1563,527.0469 193.75,526.7813 Q194.3438,526.5 194.9688,525.9219 L194.9688,528.6406 Z " fill="#000000"/><text fill="#000000" font-family="sans-serif" font-size="14" lengthAdjust="spacing" textLength="40.2842" x="206" y="527.8467">Tarifa</text><line style="stroke:#181818;stroke-width:0.5;" x1="178" x2="248.2842" y1="539" y2="539"/><line style="stroke:#181818;stroke-width:0.5;" x1="178" x2="248.2842" y1="547" y2="547"/></g><!--class Abono--><g id="elem_Abono"><rect codeLine="28" fill="#F1F1F1" height="48" id="Abono" rx="2.5" ry="2.5" style="stroke:#181818;stroke-width:0.5;" width="76.4678" x="546" y="257"/><ellipse cx="561" cy="273" fill="#ADD1B2" rx="11" ry="11" style="stroke:#181818;stroke-width:1.0;"/><path d="M563.9688,278.6406 Q563.3906,278.9375 562.75,279.0781 Q562.1094,279.2344 561.4063,279.2344 Q558.9063,279.2344 557.5781,277.5938 Q556.2656,275.9375 556.2656,272.8125 Q556.2656,269.6875 557.5781,268.0313 Q558.9063,266.375 561.4063,266.375 Q562.1094,266.375 562.75,266.5313 Q563.4063,266.6875 563.9688,266.9844 L563.9688,269.7031 Q563.3438,269.125 562.75,268.8594 Q562.1563,268.5781 561.5313,268.5781 Q560.1875,268.5781 559.5,269.6563 Q558.8125,270.7188 558.8125,272.8125 Q558.8125,274.9063 559.5,275.9844 Q560.1875,277.0469 561.5313,277.0469 Q562.1563,277.0469 562.75,276.7813 Q563.3438,276.5 563.9688,275.9219 L563.9688,278.6406 Z " fill="#000000"/><text fill="#000000" font-family="sans-serif" font-size="14" lengthAdjust="spacing" textLength="44.4678" x="575" y="277.8467">Abono</text><line style="stroke:#181818;stroke-width:0.5;" x1="547" x2="621.4678" y1="289" y2="289"/><line style="stroke:#181818;stroke-width:0.5;" x1="547" x2="621.4678" y1="297" y2="297"/></g><!--class Flota--><g id="elem_Flota"><rect codeLine="31" fill="#F1F1F1" height="48" id="Flota" rx="2.5" ry="2.5" style="stroke:#181818;stroke-width:0.5;" width="66.5762" x="313.5" y="257"/><ellipse cx="328.5" cy="273" fill="#ADD1B2" rx="11" ry="11" style="stroke:#181818;stroke-width:1.0;"/><path d="M331.4688,278.6406 Q330.8906,278.9375 330.25,279.0781 Q329.6094,279.2344 328.9063,279.2344 Q326.4063,279.2344 325.0781,277.5938 Q323.7656,275.9375 323.7656,272.8125 Q323.7656,269.6875 325.0781,268.0313 Q326.4063,266.375 328.9063,266.375 Q329.6094,266.375 330.25,266.5313 Q330.9063,266.6875 331.4688,266.9844 L331.4688,269.7031 Q330.8438,269.125 330.25,268.8594 Q329.6563,268.5781 329.0313,268.5781 Q327.6875,268.5781 327,269.6563 Q326.3125,270.7188 326.3125,272.8125 Q326.3125,274.9063 327,275.9844 Q327.6875,277.0469 329.0313,277.0469 Q329.6563,277.0469 330.25,276.7813 Q330.8438,276.5 331.4688,275.9219 L331.4688,278.6406 Z " fill="#000000"/><text fill="#000000" font-family="sans-serif" font-size="14" lengthAdjust="spacing" textLength="34.5762" x="342.5" y="277.8467">Flota</text><line style="stroke:#181818;stroke-width:0.5;" x1="314.5" x2="379.0762" y1="289" y2="289"/><line style="stroke:#181818;stroke-width:0.5;" x1="314.5" x2="379.0762" y1="297" y2="297"/></g><!--class MetodoPago--><g id="elem_MetodoPago"><rect codeLine="34" fill="#F1F1F1" height="48" id="MetodoPago" rx="2.5" ry="2.5" style="stroke:#181818;stroke-width:0.5;" width="118.6729" x="432.5" y="382"/><ellipse cx="447.5" cy="398" fill="#ADD1B2" rx="11" ry="11" style="stroke:#181818;stroke-width:1.0;"/><path d="M450.4688,403.6406 Q449.8906,403.9375 449.25,404.0781 Q448.6094,404.2344 447.9063,404.2344 Q445.4063,404.2344 444.0781,402.5938 Q442.7656,400.9375 442.7656,397.8125 Q442.7656,394.6875 444.0781,393.0313 Q445.4063,391.375 447.9063,391.375 Q448.6094,391.375 449.25,391.5313 Q449.9063,391.6875 450.4688,391.9844 L450.4688,394.7031 Q449.8438,394.125 449.25,393.8594 Q448.6563,393.5781 448.0313,393.5781 Q446.6875,393.5781 446,394.6563 Q445.3125,395.7188 445.3125,397.8125 Q445.3125,399.9063 446,400.9844 Q446.6875,402.0469 448.0313,402.0469 Q448.6563,402.0469 449.25,401.7813 Q449.8438,401.5 450.4688,400.9219 L450.4688,403.6406 Z " fill="#000000"/><text fill="#000000" font-family="sans-serif" font-size="14" lengthAdjust="spacing" textLength="86.6729" x="461.5" y="402.8467">MetodoPago</text><line style="stroke:#181818;stroke-width:0.5;" x1="433.5" x2="550.1729" y1="414" y2="414"/><line style="stroke:#181818;stroke-width:0.5;" x1="433.5" x2="550.1729" y1="422" y2="422"/></g><!--link Ruta to Horario--><g id="link_Ruta_Horario"><path codeLine="37" d="M477.93,180.14 C475.96,202.13 473.5534,229.0338 471.5934,250.9938 " fill="none" id="Ruta-to-Horario" style="stroke:#181818;stroke-width:1.0;"/><polygon fill="#181818" points="471.06,256.97,475.8443,248.3612,471.5045,251.9898,467.8759,247.65,471.06,256.97" style="stroke:#181818;stroke-width:1.0;"/><text fill="#000000" font-family="sans-serif" font-size="13" lengthAdjust="spacing" textLength="32.9443" x="476" y="223.0669">tiene</text></g><!--link Conductor to Ruta--><g id="link_Conductor_Ruta"><path codeLine="38" d="M267.28,55.14 C320.05,79.91 396.849,115.9597 442.059,137.1897 " fill="none" id="Conductor-to-Ruta" style="stroke:#181818;stroke-width:1.0;"/><polygon fill="#181818" points="447.49,139.74,441.0437,132.2938,442.9642,137.6147,437.6433,139.5352,447.49,139.74" style="stroke:#181818;stroke-width:1.0;"/><text fill="#000000" font-family="sans-serif" font-size="13" lengthAdjust="spacing" textLength="34.874" x="365" y="98.0669">sigue</text></g><!--link Conductor to Incidencia--><g id="link_Conductor_Incidencia"><path codeLine="39" d="M223.32,55.09 C225.2,64.33 227.08,75.12 228,85 C233.82,147.28 220.8563,214.63 212.2663,251.08 " fill="none" id="Conductor-to-Incidencia" style="stroke:#181818;stroke-width:1.0;"/><polygon fill="#181818" points="210.89,256.92,216.8478,249.0775,212.0369,252.0533,209.0611,247.2424,210.89,256.92" style="stroke:#181818;stroke-width:1.0;"/><text fill="#000000" font-family="sans-serif" font-size="13" lengthAdjust="spacing" textLength="47.9565" x="230" y="160.5669">reporta</text></g><!--link Conductor to Vehiculo--><g id="link_Conductor_Vehiculo"><path codeLine="40" d="M193.19,55.2 C184.57,64.02 175.26,74.49 168,85 C157.87,99.68 151.5201,112.318 145.4401,126.458 " fill="none" id="Conductor-to-Vehiculo" style="stroke:#181818;stroke-width:1.0;"/><polygon fill="#181818" points="143.07,131.97,150.2998,125.282,145.0451,127.3766,142.9505,122.1219,143.07,131.97" style="stroke:#181818;stroke-width:1.0;"/><text fill="#000000" font-family="sans-serif" font-size="13" lengthAdjust="spacing" textLength="54.9771" x="169" y="98.0669">conduce</text></g><!--link Vehiculo to Incidencia--><g id="link_Vehiculo_Incidencia"><path codeLine="41" d="M135.49,180.29 C137.23,194.53 140.96,212.7 149,227 C155.3,238.2 160.284,244.442 169.644,252.882 " fill="none" id="Vehiculo-to-Incidencia" style="stroke:#181818;stroke-width:1.0;"/><polygon fill="#181818" points="174.1,256.9,170.0947,247.9024,170.3867,253.5517,164.7374,253.8437,174.1,256.9" style="stroke:#181818;stroke-width:1.0;"/><text fill="#000000" font-family="sans-serif" font-size="13" lengthAdjust="spacing" textLength="32.9316" x="150" y="223.0669">sufre</text></g><!--link Vehiculo to Flota--><g id="link_Vehiculo_Flota"><path codeLine="42" d="M174.06,180.14 C214.31,203.38 270.4443,235.7892 308.2243,257.6092 " fill="none" id="Vehiculo-to-Flota" style="stroke:#181818;stroke-width:1.0;"/><polygon fill="#181818" points="313.42,260.61,307.627,252.645,309.0903,258.1093,303.6259,259.5726,313.42,260.61" style="stroke:#181818;stroke-width:1.0;"/></g><!--link Servicio to Ruta--><g id="link_Servicio_Ruta"><path codeLine="43" d="M415.86,55.14 C429.98,77.13 447.8682,104.9611 461.9682,126.9211 " fill="none" id="Servicio-to-Ruta" style="stroke:#181818;stroke-width:1.0;"/><polygon fill="#181818" points="465.21,131.97,463.7133,122.2355,462.5085,127.7626,456.9815,126.5579,465.21,131.97" style="stroke:#181818;stroke-width:1.0;"/><text fill="#000000" font-family="sans-serif" font-size="13" lengthAdjust="spacing" textLength="41.0186" x="446" y="98.0669">ofrece</text></g><!--link Servicio to Flota--><g id="link_Servicio_Flota"><path codeLine="44" d="M395.92,55.33 C385.6,102.72 363.5762,203.8673 353.3062,251.0473 " fill="none" id="Servicio-to-Flota" style="stroke:#181818;stroke-width:1.0;"/><polygon fill="#181818" points="352.03,256.91,357.8527,248.9667,353.0935,252.0244,350.0358,247.2651,352.03,256.91" style="stroke:#181818;stroke-width:1.0;"/><text fill="#000000" font-family="sans-serif" font-size="13" lengthAdjust="spacing" textLength="41.0186" x="379" y="160.5669">ofrece</text></g><!--link Conductor to Persona--><g id="link_Conductor_Persona"><path codeLine="45" d="M165.87,39.14 C103.1,51.01 6,81.28 6,155 C6,155 6,155 6,407 C6,445.15 26.5966,478.6393 45.0166,502.1193 " fill="none" id="Conductor-to-Persona" style="stroke:#181818;stroke-width:1.0;"/><polygon fill="#181818" points="48.72,506.84,46.3121,497.29,45.6339,502.9061,40.0178,502.2279,48.72,506.84" style="stroke:#181818;stroke-width:1.0;"/></g><!--link Pasajero to Persona--><g id="link_Pasajero_Persona"><path codeLine="46" d="M128.27,430.14 C115.22,452.13 98.7617,479.85 85.7317,501.81 " fill="none" id="Pasajero-to-Persona" style="stroke:#181818;stroke-width:1.0;"/><polygon fill="#181818" points="82.67,506.97,90.7026,501.2711,85.2214,502.67,83.8225,497.1888,82.67,506.97" style="stroke:#181818;stroke-width:1.0;"/></g><!--link Pasajero to Vehiculo--><g id="link_Pasajero_Vehiculo"><path codeLine="47" d="M133.01,382 C125.7,362.01 115.97,332.08 112,305 C105.51,260.79 115.9555,214.9298 124.6355,185.8198 " fill="none" id="Pasajero-to-Vehiculo" style="stroke:#181818;stroke-width:1.0;"/><polygon fill="#181818" points="126.35,180.07,119.9451,187.5518,124.9213,184.8615,127.6115,189.8377,126.35,180.07" style="stroke:#181818;stroke-width:1.0;"/><text fill="#000000" font-family="sans-serif" font-size="13" lengthAdjust="spacing" textLength="22.9785" x="113" y="285.5669">usa</text></g><!--link Incidencia to Pasajero--><g id="link_Incidencia_Pasajero"><path codeLine="48" d="M193.15,305.14 C181.89,327.13 167.7738,354.669 156.5338,376.629 " fill="none" id="Incidencia-to-Pasajero" style="stroke:#181818;stroke-width:1.0;"/><polygon fill="#181818" points="153.8,381.97,161.4613,375.781,156.0781,377.5191,154.3399,372.136,153.8,381.97" style="stroke:#181818;stroke-width:1.0;"/><text fill="#000000" font-family="sans-serif" font-size="13" lengthAdjust="spacing" textLength="40.752" x="178" y="348.0669">afecta</text></g><!--link Pasajero to Tarifa--><g id="link_Pasajero_Tarifa"><path codeLine="49" d="M155.35,430.14 C168.05,452.13 184.0298,479.814 196.7098,501.774 " fill="none" id="Pasajero-to-Tarifa" style="stroke:#181818;stroke-width:1.0;"/><polygon fill="#181818" points="199.71,506.97,198.6736,497.1758,197.2098,502.64,191.7456,501.1761,199.71,506.97" style="stroke:#181818;stroke-width:1.0;"/><text fill="#000000" font-family="sans-serif" font-size="13" lengthAdjust="spacing" textLength="32.4365" x="182" y="473.0669">paga</text></g><!--link MetodoPago to Tarifa--><g id="link_MetodoPago_Tarifa"><path codeLine="50" d="M439.52,430.14 C383.96,454.63 303.2205,490.2304 254.7505,511.5904 " fill="none" id="MetodoPago-to-Tarifa" style="stroke:#181818;stroke-width:1.0;"/><polygon fill="#181818" points="249.26,514.01,259.1088,514.041,253.8354,511.9937,255.8827,506.7203,249.26,514.01" style="stroke:#181818;stroke-width:1.0;"/></g><!--link Abono to MetodoPago--><g id="link_Abono_MetodoPago"><path codeLine="51" d="M566.7,305.14 C550.25,327.13 529.243,355.2048 512.823,377.1648 " fill="none" id="Abono-to-MetodoPago" style="stroke:#181818;stroke-width:1.0;"/><polygon fill="#181818" points="509.23,381.97,517.823,377.1575,512.2242,377.9656,511.416,372.3668,509.23,381.97" style="stroke:#181818;stroke-width:1.0;"/></g><!--SRC=[TL51QWCn3Bph5Vv0Fk138HHAUoWiISbTyMgt3eiLPBkNaBzduwHUQqil1i-CnCp8JHYZUMT1yMmkS0Lm1ThbXEr_J_BZdTQySkYpIomjUA1lx_AaX1_1-PxcHwtiCEA9H2axaiX1oRvcQuD2jaSEQkfjOktsanBttE781InXDfkN6jIQv2aGB0dkR95P4_sOrrIJm1gXCql2bQG6jyOLWg12VrR4FCYABo6WzjmOubaxRrFK8tBbj9LdYr0R_XTiJEU8q7Wi8xzIQt0WbrR3pyjOSyOHOUcy8U5ngpkmy3S0]--></g></svg>