<svg xmlns="http://www.w3.org/2000/svg" xmlns:xlink="http://www.w3.org/1999/xlink" contentStyleType="text/css" height="561px" preserveAspectRatio="none" style="width:926px;height:561px;background:#FFFFFF;" version="1.1" viewBox="0 0 926 561" width="926px" zoomAndPan="magnify"><title>Diagrama de Estados</title><defs/><g><text fill="#000000" font-family="sans-serif" font-size="14" font-weight="bold" lengthAdjust="spacing" textLength="167.5488" x="372.5024" y="22.9951">Diagrama de Estados</text><ellipse cx="272.5" cy="53.2969" fill="#222222" rx="10" ry="10" style="stroke:#222222;stroke-width:1.0;"/><g id="Inactivo"><rect fill="#F1F1F1" height="50" rx="12.5" ry="12.5" style="stroke:#181818;stroke-width:0.5;" width="75.5078" x="234.5" y="124.2969"/><line style="stroke:#181818;stroke-width:0.5;" x1="234.5" x2="310.0078" y1="150.5938" y2="150.5938"/><text fill="#000000" font-family="sans-serif" font-size="14" lengthAdjust="spacing" textLength="55.5078" x="244.5" y="142.292">Inactivo</text></g><g id="EnServicio"><rect fill="#F1F1F1" height="50" rx="12.5" ry="12.5" style="stroke:#181818;stroke-width:0.5;" width="93.3018" x="226" y="251.2969"/><line style="stroke:#181818;stroke-width:0.5;" x1="226" x2="319.3018" y1="277.5938" y2="277.5938"/><text fill="#000000" font-family="sans-serif" font-size="14" lengthAdjust="spacing" textLength="73.3018" x="236" y="269.292">EnServicio</text></g><g id="EnRuta"><rect fill="#F1F1F1" height="50" rx="12.5" ry="12.5" style="stroke:#181818;stroke-width:0.5;" width="70.3877" x="430.5" y="378.2969"/><line style="stroke:#181818;stroke-width:0.5;" x1="430.5" x2="500.8877" y1="404.5938" y2="404.5938"/><text fill="#000000" font-family="sans-serif" font-size="14" lengthAdjust="spacing" textLength="50.3877" x="440.5" y="396.292">EnRuta</text></g><g id="Parada"><rect fill="#F1F1F1" height="50" rx="12.5" ry="12.5" style="stroke:#181818;stroke-width:0.5;" width="68.8223" x="578" y="505.2969"/><line style="stroke:#181818;stroke-width:0.5;" x1="578" x2="646.8223" y1="531.5938" y2="531.5938"/><text fill="#000000" font-family="sans-serif" font-size="14" lengthAdjust="spacing" textLength="48.8223" x="588" y="523.292">Parada</text></g><g id="GestionIncidencia"><rect fill="#F1F1F1" height="50" rx="12.5" ry="12.5" style="stroke:#181818;stroke-width:0.5;" width="144.7012" x="212" y="505.2969"/><line style="stroke:#181818;stroke-width:0.5;" x1="212" x2="356.7012" y1="531.5938" y2="531.5938"/><text fill="#000000" font-family="sans-serif" font-size="14" lengthAdjust="spacing" textLength="124.7012" x="222" y="523.292">GestionIncidencia</text></g><g id="Mantenimiento"><rect fill="#F1F1F1" height="50" rx="12.5" ry="12.5" style="stroke:#181818;stroke-width:0.5;" width="125.4648" x="7" y="505.2969"/><line style="stroke:#181818;stroke-width:0.5;" x1="7" x2="132.4648" y1="531.5938" y2="531.5938"/><text fill="#000000" font-family="sans-serif" font-size="14" lengthAdjust="spacing" textLength="105.4648" x="17" y="523.292">Mantenimiento</text></g><g id="Finalizado"><rect fill="#F1F1F1" height="50" rx="12.5" ry="12.5" style="stroke:#181818;stroke-width:0.5;" width="90.5537" x="829" y="505.2969"/><line style="stroke:#181818;stroke-width:0.5;" x1="829" x2="919.5537" y1="531.5938" y2="531.5938"/><text fill="#000000" font-family="sans-serif" font-size="14" lengthAdjust="spacing" textLength="70.5537" x="839" y="523.292">Finalizado</text></g><!--link *start* to Inactivo--><g id="link_*start*_Inactivo"><path d="M272.5,63.3069 C272.5,77.1869 272.5,98.2669 272.5,118.1369 " fill="none" id="*start*-to-Inactivo" style="stroke:#181818;stroke-width:1.0;"/><polygon fill="#181818" points="272.5,124.1369,276.5,115.1369,272.5,119.1369,268.5,115.1369,272.5,124.1369" style="stroke:#181818;stroke-width:1.0;"/></g><!--link Inactivo to EnServicio--><g id="link_Inactivo_EnServicio"><path d="M272.5,174.3969 C272.5,196.5369 272.5,223.1569 272.5,245.2669 " fill="none" id="Inactivo-to-EnServicio" style="stroke:#181818;stroke-width:1.0;"/><polygon fill="#181818" points="272.5,251.2669,276.5,242.2669,272.5,246.2669,268.5,242.2669,272.5,251.2669" style="stroke:#181818;stroke-width:1.0;"/><text fill="#000000" font-family="sans-serif" font-size="13" lengthAdjust="spacing" textLength="95.5005" x="273.5" y="217.3638">Iniciar Servicio</text></g><!--link EnServicio to EnRuta--><g id="link_EnServicio_EnRuta"><path d="M309.71,301.3969 C344.55,323.9569 391.1746,354.1543 425.3146,376.2743 " fill="none" id="EnServicio-to-EnRuta" style="stroke:#181818;stroke-width:1.0;"/><polygon fill="#181818" points="430.35,379.5369,424.9719,371.2861,426.1538,376.8181,420.6218,378,430.35,379.5369" style="stroke:#181818;stroke-width:1.0;"/><text fill="#000000" font-family="sans-serif" font-size="13" lengthAdjust="spacing" textLength="83.5479" x="382.5" y="344.3638">Asignar Ruta</text></g><!--link EnRuta to Parada--><g id="link_EnRuta_Parada"><path d="M500.83,403.5469 C542.63,404.8069 610.7,414.0669 643.5,458.2969 C654,472.4469 649.1925,485.879 638.5225,500.339 " fill="none" id="EnRuta-to-Parada" style="stroke:#181818;stroke-width:1.0;"/><polygon fill="#181818" points="634.96,505.1669,643.5223,500.3,637.9287,501.1436,637.0851,495.55,634.96,505.1669" style="stroke:#181818;stroke-width:1.0;"/><text fill="#000000" font-family="sans-serif" font-size="13" lengthAdjust="spacing" textLength="101.9814" x="649.5" y="471.3638">Llegar a Parada</text></g><!--link Parada to EnRuta--><g id="link_Parada_EnRuta"><path d="M577.78,506.9169 C564.19,497.6569 548.71,486.4769 535.5,475.2969 C518.32,460.7669 504.6375,447.0698 491.2875,432.7898 " fill="none" id="Parada-to-EnRuta" style="stroke:#181818;stroke-width:1.0;"/><polygon fill="#181818" points="487.19,428.4069,490.4143,437.713,490.6046,432.0593,496.2582,432.2496,487.19,428.4069" style="stroke:#181818;stroke-width:1.0;"/><text fill="#000000" font-family="sans-serif" font-size="13" lengthAdjust="spacing" textLength="98.6362" x="536.5" y="471.3638">Salir de Parada</text></g><!--link EnRuta to GestionIncidencia--><g id="link_EnRuta_GestionIncidencia"><path d="M430.4,425.8169 C414.93,435.4969 396.65,447.2169 380.5,458.2969 C358.62,473.3069 339.4073,487.4399 320.8773,501.4399 " fill="none" id="EnRuta-to-GestionIncidencia" style="stroke:#181818;stroke-width:1.0;"/><polygon fill="#181818" points="316.09,505.0569,325.6822,502.823,320.0794,502.0428,320.8596,496.44,316.09,505.0569" style="stroke:#181818;stroke-width:1.0;"/><text fill="#000000" font-family="sans-serif" font-size="13" lengthAdjust="spacing" textLength="127.1689" x="381.5" y="471.3638">Reportar Incidencia</text></g><!--link GestionIncidencia to EnServicio--><g id="link_GestionIncidencia_EnServicio"><path d="M238.37,505.2169 C227.61,497.2369 217.53,487.2669 211.5,475.2969 C181.71,416.1969 222.7585,344.6463 250.1785,306.3263 " fill="none" id="GestionIncidencia-to-EnServicio" style="stroke:#181818;stroke-width:1.0;"/><polygon fill="#181818" points="253.67,301.4469,245.1797,306.4384,250.7604,305.5131,251.6857,311.0938,253.67,301.4469" style="stroke:#181818;stroke-width:1.0;"/><text fill="#000000" font-family="sans-serif" font-size="13" lengthAdjust="spacing" textLength="126.896" x="213.5" y="407.8638">Incidencia Resuelta</text></g><!--link EnRuta to Mantenimiento--><g id="link_EnRuta_Mantenimiento"><path d="M430.37,412.5969 C389.67,422.4469 320.74,439.8769 262.5,458.2969 C217.74,472.4469 173.6412,488.646 135.8812,503.146 " fill="none" id="EnRuta-to-Mantenimiento" style="stroke:#181818;stroke-width:1.0;"/><polygon fill="#181818" points="130.28,505.2969,140.1158,505.8047,134.9477,503.5045,137.2479,498.3364,130.28,505.2969" style="stroke:#181818;stroke-width:1.0;"/><text fill="#000000" font-family="sans-serif" font-size="13" lengthAdjust="spacing" textLength="84.7158" x="263.5" y="471.3638">Aver&#237;a Grave</text></g><!--link Mantenimiento to Inactivo--><g id="link_Mantenimiento_Inactivo"><path d="M64.47,505.0869 C57.64,466.3769 49.11,388.9969 75.5,331.2969 C108.92,258.2269 182.0404,204.4182 229.2404,175.1582 " fill="none" id="Mantenimiento-to-Inactivo" style="stroke:#181818;stroke-width:1.0;"/><polygon fill="#181818" points="234.34,171.9969,224.583,173.3391,230.0903,174.6313,228.7981,180.1386,234.34,171.9969" style="stroke:#181818;stroke-width:1.0;"/><text fill="#000000" font-family="sans-serif" font-size="13" lengthAdjust="spacing" textLength="140.2642" x="76.5" y="344.3638">Reparaci&#243;n Completa</text></g><!--link EnRuta to Finalizado--><g id="link_EnRuta_Finalizado"><path d="M500.58,406.5369 C556.88,411.0369 670.14,423.9069 759.5,458.2969 C789.5,469.8469 815.4283,485.9067 837.5983,501.5567 " fill="none" id="EnRuta-to-Finalizado" style="stroke:#181818;stroke-width:1.0;"/><polygon fill="#181818" points="842.5,505.0169,837.4542,496.5588,838.4152,502.1334,832.8406,503.0944,842.5,505.0169" style="stroke:#181818;stroke-width:1.0;"/><text fill="#000000" font-family="sans-serif" font-size="13" lengthAdjust="spacing" textLength="74.1787" x="794.5" y="471.3638">Fin de Ruta</text></g><!--link Finalizado to Inactivo--><g id="link_Finalizado_Inactivo"><path d="M881.92,505.2369 C884.95,490.6269 886.01,472.1769 877.5,458.2969 C747.83,246.7769 428.2659,175.8682 316.6659,156.9782 " fill="none" id="Finalizado-to-Inactivo" style="stroke:#181818;stroke-width:1.0;"/><polygon fill="#181818" points="310.75,155.9769,318.9562,161.4228,315.6799,156.8113,320.2913,153.535,310.75,155.9769" style="stroke:#181818;stroke-width:1.0;"/><text fill="#000000" font-family="sans-serif" font-size="13" lengthAdjust="spacing" textLength="122.3066" x="777.5" y="344.3638">Regresar a la Base</text></g><!--SRC=[RP51QiD034NtEeNMXLmWYqBQfY7GG76MeGjX2oCOQyACuaNlr5MFa8j5upYfJRePfFyV7qbZOe7nJQXDr14sZEjirCGCS7ZwmiNY6RTAjKaV0MxL8AzrpwcNMY8kdV624juacBXNk3ePERZAqgg3fOLHBS0d9MeAy16uTPz61KPZ5hAd8AdCEZAJd0rdawXRhQLXVmfUyJ4cyz0_5HwvVtQwUnNd4uVvn3jIOvLEMAtWgvxJ-OTmawXdcBlJCru7yi5hEVygliRk67WU_Ixg6txxDpZiJLbrEDZ4U8Xi4-VXS87mXJ9V0000]--></g></svg>