<svg xmlns="http://www.w3.org/2000/svg" xmlns:xlink="http://www.w3.org/1999/xlink" contentStyleType="text/css" height="849px" preserveAspectRatio="none" style="width:774px;height:849px;background:#FFFFFF;" version="1.1" viewBox="0 0 774 849" width="774px" zoomAndPan="magnify"><title>Diagrama de Clases - Sistema de Transporte P&#250;blico</title><defs/><g><text fill="#000000" font-family="sans-serif" font-size="14" font-weight="bold" lengthAdjust="spacing" textLength="414.0527" x="173.4106" y="22.9951">Diagrama de Clases - Sistema de Transporte P&#250;blico</text><!--class Persona--><g id="elem_Persona"><rect codeLine="3" fill="#F1F1F1" height="48" id="Persona" rx="2.5" ry="2.5" style="stroke:#181818;stroke-width:0.5;" width="88.123" x="412" y="44.2969"/><ellipse cx="427" cy="60.2969" fill="#ADD1B2" rx="11" ry="11" style="stroke:#181818;stroke-width:1.0;"/><path d="M429.9688,65.9375 Q429.3906,66.2344 428.75,66.375 Q428.1094,66.5313 427.4063,66.5313 Q424.9063,66.5313 423.5781,64.8906 Q422.2656,63.2344 422.2656,60.1094 Q422.2656,56.9844 423.5781,55.3281 Q424.9063,53.6719 427.4063,53.6719 Q428.1094,53.6719 428.75,53.8281 Q429.4063,53.9844 429.9688,54.2813 L429.9688,57 Q429.3438,56.4219 428.75,56.1563 Q428.1563,55.875 427.5313,55.875 Q426.1875,55.875 425.5,56.9531 Q424.8125,58.0156 424.8125,60.1094 Q424.8125,62.2031 425.5,63.2813 Q426.1875,64.3438 427.5313,64.3438 Q428.1563,64.3438 428.75,64.0781 Q429.3438,63.7969 429.9688,63.2188 L429.9688,65.9375 Z " fill="#000000"/><text fill="#000000" font-family="sans-serif" font-size="14" lengthAdjust="spacing" textLength="56.123" x="441" y="65.1436">Persona</text><line style="stroke:#181818;stroke-width:0.5;" x1="413" x2="499.123" y1="76.2969" y2="76.2969"/><line style="stroke:#181818;stroke-width:0.5;" x1="413" x2="499.123" y1="84.2969" y2="84.2969"/></g><!--class Conductor--><g id="elem_Conductor"><rect codeLine="6" fill="#F1F1F1" height="48" id="Conductor" rx="2.5" ry="2.5" style="stroke:#181818;stroke-width:0.5;" width="104.4814" x="156" y="169.2969"/><ellipse cx="171" cy="185.2969" fill="#ADD1B2" rx="11" ry="11" style="stroke:#181818;stroke-width:1.0;"/><path d="M173.9688,190.9375 Q173.3906,191.2344 172.75,191.375 Q172.1094,191.5313 171.4063,191.5313 Q168.9063,191.5313 167.5781,189.8906 Q166.2656,188.2344 166.2656,185.1094 Q166.2656,181.9844 167.5781,180.3281 Q168.9063,178.6719 171.4063,178.6719 Q172.1094,178.6719 172.75,178.8281 Q173.4063,178.9844 173.9688,179.2813 L173.9688,182 Q173.3438,181.4219 172.75,181.1563 Q172.1563,180.875 171.5313,180.875 Q170.1875,180.875 169.5,181.9531 Q168.8125,183.0156 168.8125,185.1094 Q168.8125,187.2031 169.5,188.2813 Q170.1875,189.3438 171.5313,189.3438 Q172.1563,189.3438 172.75,189.0781 Q173.3438,188.7969 173.9688,188.2188 L173.9688,190.9375 Z " fill="#000000"/><text fill="#000000" font-family="sans-serif" font-size="14" lengthAdjust="spacing" textLength="72.4814" x="185" y="190.1436">Conductor</text><line style="stroke:#181818;stroke-width:0.5;" x1="157" x2="259.4814" y1="201.2969" y2="201.2969"/><line style="stroke:#181818;stroke-width:0.5;" x1="157" x2="259.4814" y1="209.2969" y2="209.2969"/></g><!--class Pasajero--><g id="elem_Pasajero"><rect codeLine="9" fill="#F1F1F1" height="48" id="Pasajero" rx="2.5" ry="2.5" style="stroke:#181818;stroke-width:0.5;" width="91.7188" x="431" y="169.2969"/><ellipse cx="446" cy="185.2969" fill="#ADD1B2" rx="11" ry="11" style="stroke:#181818;stroke-width:1.0;"/><path d="M448.9688,190.9375 Q448.3906,191.2344 447.75,191.375 Q447.1094,191.5313 446.4063,191.5313 Q443.9063,191.5313 442.5781,189.8906 Q441.2656,188.2344 441.2656,185.1094 Q441.2656,181.9844 442.5781,180.3281 Q443.9063,178.6719 446.4063,178.6719 Q447.1094,178.6719 447.75,178.8281 Q448.4063,178.9844 448.9688,179.2813 L448.9688,182 Q448.3438,181.4219 447.75,181.1563 Q447.1563,180.875 446.5313,180.875 Q445.1875,180.875 444.5,181.9531 Q443.8125,183.0156 443.8125,185.1094 Q443.8125,187.2031 444.5,188.2813 Q445.1875,189.3438 446.5313,189.3438 Q447.1563,189.3438 447.75,189.0781 Q448.3438,188.7969 448.9688,188.2188 L448.9688,190.9375 Z " fill="#000000"/><text fill="#000000" font-family="sans-serif" font-size="14" lengthAdjust="spacing" textLength="59.7188" x="460" y="190.1436">Pasajero</text><line style="stroke:#181818;stroke-width:0.5;" x1="432" x2="521.7188" y1="201.2969" y2="201.2969"/><line style="stroke:#181818;stroke-width:0.5;" x1="432" x2="521.7188" y1="209.2969" y2="209.2969"/></g><!--class Vehiculo--><g id="elem_Vehiculo"><rect codeLine="12" fill="#F1F1F1" height="48" id="Vehiculo" rx="2.5" ry="2.5" style="stroke:#181818;stroke-width:0.5;" width="91.9785" x="316" y="294.2969"/><ellipse cx="331" cy="310.2969" fill="#ADD1B2" rx="11" ry="11" style="stroke:#181818;stroke-width:1.0;"/><path d="M333.9688,315.9375 Q333.3906,316.2344 332.75,316.375 Q332.1094,316.5313 331.4063,316.5313 Q328.9063,316.5313 327.5781,314.8906 Q326.2656,313.2344 326.2656,310.1094 Q326.2656,306.9844 327.5781,305.3281 Q328.9063,303.6719 331.4063,303.6719 Q332.1094,303.6719 332.75,303.8281 Q333.4063,303.9844 333.9688,304.2813 L333.9688,307 Q333.3438,306.4219 332.75,306.1563 Q332.1563,305.875 331.5313,305.875 Q330.1875,305.875 329.5,306.9531 Q328.8125,308.0156 328.8125,310.1094 Q328.8125,312.2031 329.5,313.2813 Q330.1875,314.3438 331.5313,314.3438 Q332.1563,314.3438 332.75,314.0781 Q333.3438,313.7969 333.9688,313.2188 L333.9688,315.9375 Z " fill="#000000"/><text fill="#000000" font-family="sans-serif" font-size="14" lengthAdjust="spacing" textLength="59.9785" x="345" y="315.1436">Vehiculo</text><line style="stroke:#181818;stroke-width:0.5;" x1="317" x2="406.9785" y1="326.2969" y2="326.2969"/><line style="stroke:#181818;stroke-width:0.5;" x1="317" x2="406.9785" y1="334.2969" y2="334.2969"/></g><!--class Ruta--><g id="elem_Ruta"><rect codeLine="15" fill="#F1F1F1" height="48" id="Ruta" rx="2.5" ry="2.5" style="stroke:#181818;stroke-width:0.5;" width="64.6689" x="216.5" y="669.2969"/><ellipse cx="231.5" cy="685.2969" fill="#ADD1B2" rx="11" ry="11" style="stroke:#181818;stroke-width:1.0;"/><path d="M234.4688,690.9375 Q233.8906,691.2344 233.25,691.375 Q232.6094,691.5313 231.9063,691.5313 Q229.4063,691.5313 228.0781,689.8906 Q226.7656,688.2344 226.7656,685.1094 Q226.7656,681.9844 228.0781,680.3281 Q229.4063,678.6719 231.9063,678.6719 Q232.6094,678.6719 233.25,678.8281 Q233.9063,678.9844 234.4688,679.2813 L234.4688,682 Q233.8438,681.4219 233.25,681.1563 Q232.6563,680.875 232.0313,680.875 Q230.6875,680.875 230,681.9531 Q229.3125,683.0156 229.3125,685.1094 Q229.3125,687.2031 230,688.2813 Q230.6875,689.3438 232.0313,689.3438 Q232.6563,689.3438 233.25,689.0781 Q233.8438,688.7969 234.4688,688.2188 L234.4688,690.9375 Z " fill="#000000"/><text fill="#000000" font-family="sans-serif" font-size="14" lengthAdjust="spacing" textLength="32.6689" x="245.5" y="690.1436">Ruta</text><line style="stroke:#181818;stroke-width:0.5;" x1="217.5" x2="280.1689" y1="701.2969" y2="701.2969"/><line style="stroke:#181818;stroke-width:0.5;" x1="217.5" x2="280.1689" y1="709.2969" y2="709.2969"/></g><!--class Horario--><g id="elem_Horario"><rect codeLine="18" fill="#F1F1F1" height="48" id="Horario" rx="2.5" ry="2.5" style="stroke:#181818;stroke-width:0.5;" width="83.6387" x="148" y="794.2969"/><ellipse cx="163" cy="810.2969" fill="#ADD1B2" rx="11" ry="11" style="stroke:#181818;stroke-width:1.0;"/><path d="M165.9688,815.9375 Q165.3906,816.2344 164.75,816.375 Q164.1094,816.5313 163.4063,816.5313 Q160.9063,816.5313 159.5781,814.8906 Q158.2656,813.2344 158.2656,810.1094 Q158.2656,806.9844 159.5781,805.3281 Q160.9063,803.6719 163.4063,803.6719 Q164.1094,803.6719 164.75,803.8281 Q165.4063,803.9844 165.9688,804.2813 L165.9688,807 Q165.3438,806.4219 164.75,806.1563 Q164.1563,805.875 163.5313,805.875 Q162.1875,805.875 161.5,806.9531 Q160.8125,808.0156 160.8125,810.1094 Q160.8125,812.2031 161.5,813.2813 Q162.1875,814.3438 163.5313,814.3438 Q164.1563,814.3438 164.75,814.0781 Q165.3438,813.7969 165.9688,813.2188 L165.9688,815.9375 Z " fill="#000000"/><text fill="#000000" font-family="sans-serif" font-size="14" lengthAdjust="spacing" textLength="51.6387" x="177" y="815.1436">Horario</text><line style="stroke:#181818;stroke-width:0.5;" x1="149" x2="230.6387" y1="826.2969" y2="826.2969"/><line style="stroke:#181818;stroke-width:0.5;" x1="149" x2="230.6387" y1="834.2969" y2="834.2969"/></g><!--class Parada--><g id="elem_Parada"><rect codeLine="21" fill="#F1F1F1" height="48" id="Parada" rx="2.5" ry="2.5" style="stroke:#181818;stroke-width:0.5;" width="80.8223" x="267.5" y="794.2969"/><ellipse cx="282.5" cy="810.2969" fill="#ADD1B2" rx="11" ry="11" style="stroke:#181818;stroke-width:1.0;"/><path d="M285.4688,815.9375 Q284.8906,816.2344 284.25,816.375 Q283.6094,816.5313 282.9063,816.5313 Q280.4063,816.5313 279.0781,814.8906 Q277.7656,813.2344 277.7656,810.1094 Q277.7656,806.9844 279.0781,805.3281 Q280.4063,803.6719 282.9063,803.6719 Q283.6094,803.6719 284.25,803.8281 Q284.9063,803.9844 285.4688,804.2813 L285.4688,807 Q284.8438,806.4219 284.25,806.1563 Q283.6563,805.875 283.0313,805.875 Q281.6875,805.875 281,806.9531 Q280.3125,808.0156 280.3125,810.1094 Q280.3125,812.2031 281,813.2813 Q281.6875,814.3438 283.0313,814.3438 Q283.6563,814.3438 284.25,814.0781 Q284.8438,813.7969 285.4688,813.2188 L285.4688,815.9375 Z " fill="#000000"/><text fill="#000000" font-family="sans-serif" font-size="14" lengthAdjust="spacing" textLength="48.8223" x="296.5" y="815.1436">Parada</text><line style="stroke:#181818;stroke-width:0.5;" x1="268.5" x2="347.3223" y1="826.2969" y2="826.2969"/><line style="stroke:#181818;stroke-width:0.5;" x1="268.5" x2="347.3223" y1="834.2969" y2="834.2969"/></g><!--class Servicio--><g id="elem_Servicio"><rect codeLine="24" fill="#F1F1F1" height="48" id="Servicio" rx="2.5" ry="2.5" style="stroke:#181818;stroke-width:0.5;" width="87.583" x="205" y="544.2969"/><ellipse cx="220" cy="560.2969" fill="#ADD1B2" rx="11" ry="11" style="stroke:#181818;stroke-width:1.0;"/><path d="M222.9688,565.9375 Q222.3906,566.2344 221.75,566.375 Q221.1094,566.5313 220.4063,566.5313 Q217.9063,566.5313 216.5781,564.8906 Q215.2656,563.2344 215.2656,560.1094 Q215.2656,556.9844 216.5781,555.3281 Q217.9063,553.6719 220.4063,553.6719 Q221.1094,553.6719 221.75,553.8281 Q222.4063,553.9844 222.9688,554.2813 L222.9688,557 Q222.3438,556.4219 221.75,556.1563 Q221.1563,555.875 220.5313,555.875 Q219.1875,555.875 218.5,556.9531 Q217.8125,558.0156 217.8125,560.1094 Q217.8125,562.2031 218.5,563.2813 Q219.1875,564.3438 220.5313,564.3438 Q221.1563,564.3438 221.75,564.0781 Q222.3438,563.7969 222.9688,563.2188 L222.9688,565.9375 Z " fill="#000000"/><text fill="#000000" font-family="sans-serif" font-size="14" lengthAdjust="spacing" textLength="55.583" x="234" y="565.1436">Servicio</text><line style="stroke:#181818;stroke-width:0.5;" x1="206" x2="291.583" y1="576.2969" y2="576.2969"/><line style="stroke:#181818;stroke-width:0.5;" x1="206" x2="291.583" y1="584.2969" y2="584.2969"/></g><!--class Incidencia--><g id="elem_Incidencia"><rect codeLine="27" fill="#F1F1F1" height="48" id="Incidencia" rx="2.5" ry="2.5" style="stroke:#181818;stroke-width:0.5;" width="103.1279" x="324.5" y="419.2969"/><ellipse cx="339.5" cy="435.2969" fill="#ADD1B2" rx="11" ry="11" style="stroke:#181818;stroke-width:1.0;"/><path d="M342.4688,440.9375 Q341.8906,441.2344 341.25,441.375 Q340.6094,441.5313 339.9063,441.5313 Q337.4063,441.5313 336.0781,439.8906 Q334.7656,438.2344 334.7656,435.1094 Q334.7656,431.9844 336.0781,430.3281 Q337.4063,428.6719 339.9063,428.6719 Q340.6094,428.6719 341.25,428.8281 Q341.9063,428.9844 342.4688,429.2813 L342.4688,432 Q341.8438,431.4219 341.25,431.1563 Q340.6563,430.875 340.0313,430.875 Q338.6875,430.875 338,431.9531 Q337.3125,433.0156 337.3125,435.1094 Q337.3125,437.2031 338,438.2813 Q338.6875,439.3438 340.0313,439.3438 Q340.6563,439.3438 341.25,439.0781 Q341.8438,438.7969 342.4688,438.2188 L342.4688,440.9375 Z " fill="#000000"/><text fill="#000000" font-family="sans-serif" font-size="14" lengthAdjust="spacing" textLength="71.1279" x="353.5" y="440.1436">Incidencia</text><line style="stroke:#181818;stroke-width:0.5;" x1="325.5" x2="426.6279" y1="451.2969" y2="451.2969"/><line style="stroke:#181818;stroke-width:0.5;" x1="325.5" x2="426.6279" y1="459.2969" y2="459.2969"/></g><!--class Flota--><g id="elem_Flota"><rect codeLine="30" fill="#F1F1F1" height="48" id="Flota" rx="2.5" ry="2.5" style="stroke:#181818;stroke-width:0.5;" width="66.5762" x="328.5" y="169.2969"/><ellipse cx="343.5" cy="185.2969" fill="#ADD1B2" rx="11" ry="11" style="stroke:#181818;stroke-width:1.0;"/><path d="M346.4688,190.9375 Q345.8906,191.2344 345.25,191.375 Q344.6094,191.5313 343.9063,191.5313 Q341.4063,191.5313 340.0781,189.8906 Q338.7656,188.2344 338.7656,185.1094 Q338.7656,181.9844 340.0781,180.3281 Q341.4063,178.6719 343.9063,178.6719 Q344.6094,178.6719 345.25,178.8281 Q345.9063,178.9844 346.4688,179.2813 L346.4688,182 Q345.8438,181.4219 345.25,181.1563 Q344.6563,180.875 344.0313,180.875 Q342.6875,180.875 342,181.9531 Q341.3125,183.0156 341.3125,185.1094 Q341.3125,187.2031 342,188.2813 Q342.6875,189.3438 344.0313,189.3438 Q344.6563,189.3438 345.25,189.0781 Q345.8438,188.7969 346.4688,188.2188 L346.4688,190.9375 Z " fill="#000000"/><text fill="#000000" font-family="sans-serif" font-size="14" lengthAdjust="spacing" textLength="34.5762" x="357.5" y="190.1436">Flota</text><line style="stroke:#181818;stroke-width:0.5;" x1="329.5" x2="394.0762" y1="201.2969" y2="201.2969"/><line style="stroke:#181818;stroke-width:0.5;" x1="329.5" x2="394.0762" y1="209.2969" y2="209.2969"/></g><!--class Tarifa--><g id="elem_Tarifa"><rect codeLine="33" fill="#F1F1F1" height="48" id="Tarifa" rx="2.5" ry="2.5" style="stroke:#181818;stroke-width:0.5;" width="72.2842" x="560" y="294.2969"/><ellipse cx="575" cy="310.2969" fill="#ADD1B2" rx="11" ry="11" style="stroke:#181818;stroke-width:1.0;"/><path d="M577.9688,315.9375 Q577.3906,316.2344 576.75,316.375 Q576.1094,316.5313 575.4063,316.5313 Q572.9063,316.5313 571.5781,314.8906 Q570.2656,313.2344 570.2656,310.1094 Q570.2656,306.9844 571.5781,305.3281 Q572.9063,303.6719 575.4063,303.6719 Q576.1094,303.6719 576.75,303.8281 Q577.4063,303.9844 577.9688,304.2813 L577.9688,307 Q577.3438,306.4219 576.75,306.1563 Q576.1563,305.875 575.5313,305.875 Q574.1875,305.875 573.5,306.9531 Q572.8125,308.0156 572.8125,310.1094 Q572.8125,312.2031 573.5,313.2813 Q574.1875,314.3438 575.5313,314.3438 Q576.1563,314.3438 576.75,314.0781 Q577.3438,313.7969 577.9688,313.2188 L577.9688,315.9375 Z " fill="#000000"/><text fill="#000000" font-family="sans-serif" font-size="14" lengthAdjust="spacing" textLength="40.2842" x="589" y="315.1436">Tarifa</text><line style="stroke:#181818;stroke-width:0.5;" x1="561" x2="631.2842" y1="326.2969" y2="326.2969"/><line style="stroke:#181818;stroke-width:0.5;" x1="561" x2="631.2842" y1="334.2969" y2="334.2969"/></g><!--class Abono--><g id="elem_Abono"><rect codeLine="36" fill="#F1F1F1" height="48" id="Abono" rx="2.5" ry="2.5" style="stroke:#181818;stroke-width:0.5;" width="76.4678" x="554" y="44.2969"/><ellipse cx="569" cy="60.2969" fill="#ADD1B2" rx="11" ry="11" style="stroke:#181818;stroke-width:1.0;"/><path d="M571.9688,65.9375 Q571.3906,66.2344 570.75,66.375 Q570.1094,66.5313 569.4063,66.5313 Q566.9063,66.5313 565.5781,64.8906 Q564.2656,63.2344 564.2656,60.1094 Q564.2656,56.9844 565.5781,55.3281 Q566.9063,53.6719 569.4063,53.6719 Q570.1094,53.6719 570.75,53.8281 Q571.4063,53.9844 571.9688,54.2813 L571.9688,57 Q571.3438,56.4219 570.75,56.1563 Q570.1563,55.875 569.5313,55.875 Q568.1875,55.875 567.5,56.9531 Q566.8125,58.0156 566.8125,60.1094 Q566.8125,62.2031 567.5,63.2813 Q568.1875,64.3438 569.5313,64.3438 Q570.1563,64.3438 570.75,64.0781 Q571.3438,63.7969 571.9688,63.2188 L571.9688,65.9375 Z " fill="#000000"/><text fill="#000000" font-family="sans-serif" font-size="14" lengthAdjust="spacing" textLength="44.4678" x="583" y="65.1436">Abono</text><line style="stroke:#181818;stroke-width:0.5;" x1="555" x2="629.4678" y1="76.2969" y2="76.2969"/><line style="stroke:#181818;stroke-width:0.5;" x1="555" x2="629.4678" y1="84.2969" y2="84.2969"/></g><!--class MetodoPago--><g id="elem_MetodoPago"><rect codeLine="39" fill="#F1F1F1" height="48" id="MetodoPago" rx="2.5" ry="2.5" style="stroke:#181818;stroke-width:0.5;" width="118.6729" x="558.5" y="169.2969"/><ellipse cx="573.5" cy="185.2969" fill="#ADD1B2" rx="11" ry="11" style="stroke:#181818;stroke-width:1.0;"/><path d="M576.4688,190.9375 Q575.8906,191.2344 575.25,191.375 Q574.6094,191.5313 573.9063,191.5313 Q571.4063,191.5313 570.0781,189.8906 Q568.7656,188.2344 568.7656,185.1094 Q568.7656,181.9844 570.0781,180.3281 Q571.4063,178.6719 573.9063,178.6719 Q574.6094,178.6719 575.25,178.8281 Q575.9063,178.9844 576.4688,179.2813 L576.4688,182 Q575.8438,181.4219 575.25,181.1563 Q574.6563,180.875 574.0313,180.875 Q572.6875,180.875 572,181.9531 Q571.3125,183.0156 571.3125,185.1094 Q571.3125,187.2031 572,188.2813 Q572.6875,189.3438 574.0313,189.3438 Q574.6563,189.3438 575.25,189.0781 Q575.8438,188.7969 576.4688,188.2188 L576.4688,190.9375 Z " fill="#000000"/><text fill="#000000" font-family="sans-serif" font-size="14" lengthAdjust="spacing" textLength="86.6729" x="587.5" y="190.1436">MetodoPago</text><line style="stroke:#181818;stroke-width:0.5;" x1="559.5" x2="676.1729" y1="201.2969" y2="201.2969"/><line style="stroke:#181818;stroke-width:0.5;" x1="559.5" x2="676.1729" y1="209.2969" y2="209.2969"/></g><!--class Viaje--><g id="elem_Viaje"><rect codeLine="42" fill="#F1F1F1" height="48" id="Viaje" rx="2.5" ry="2.5" style="stroke:#181818;stroke-width:0.5;" width="66.5488" x="681.5" y="44.2969"/><ellipse cx="696.5" cy="60.2969" fill="#ADD1B2" rx="11" ry="11" style="stroke:#181818;stroke-width:1.0;"/><path d="M699.4688,65.9375 Q698.8906,66.2344 698.25,66.375 Q697.6094,66.5313 696.9063,66.5313 Q694.4063,66.5313 693.0781,64.8906 Q691.7656,63.2344 691.7656,60.1094 Q691.7656,56.9844 693.0781,55.3281 Q694.4063,53.6719 696.9063,53.6719 Q697.6094,53.6719 698.25,53.8281 Q698.9063,53.9844 699.4688,54.2813 L699.4688,57 Q698.8438,56.4219 698.25,56.1563 Q697.6563,55.875 697.0313,55.875 Q695.6875,55.875 695,56.9531 Q694.3125,58.0156 694.3125,60.1094 Q694.3125,62.2031 695,63.2813 Q695.6875,64.3438 697.0313,64.3438 Q697.6563,64.3438 698.25,64.0781 Q698.8438,63.7969 699.4688,63.2188 L699.4688,65.9375 Z " fill="#000000"/><text fill="#000000" font-family="sans-serif" font-size="14" lengthAdjust="spacing" textLength="34.5488" x="710.5" y="65.1436">Viaje</text><line style="stroke:#181818;stroke-width:0.5;" x1="682.5" x2="747.0488" y1="76.2969" y2="76.2969"/><line style="stroke:#181818;stroke-width:0.5;" x1="682.5" x2="747.0488" y1="84.2969" y2="84.2969"/></g><!--reverse link Persona to Conductor--><g id="link_Persona_Conductor"><path d="M395.8242,99.1442 C351.5642,121.0942 299.73,146.7969 254.59,169.1869 " fill="none" id="Persona-backto-Conductor" style="stroke:#181818;stroke-width:1.0;"/><polygon fill="none" points="411.95,91.1469,393.1584,93.7689,398.4899,104.5195,411.95,91.1469" style="stroke:#181818;stroke-width:1.0;"/></g><!--reverse link Persona to Pasajero--><g id="link_Persona_Pasajero"><path d="M462.9759,110.1807 C466.7259,132.1707 469.32,147.3069 473.07,169.2669 " fill="none" id="Persona-backto-Pasajero" style="stroke:#181818;stroke-width:1.0;"/><polygon fill="none" points="459.95,92.4369,457.0613,111.1893,468.8905,109.1721,459.95,92.4369" style="stroke:#181818;stroke-width:1.0;"/></g><!--reverse link Ruta to Parada--><g id="link_Ruta_Parada"><path codeLine="45" d="M265.2907,728.2561 C275.8407,750.2461 286.42,772.3069 296.95,794.2669 " fill="none" id="Ruta-backto-Parada" style="stroke:#181818;stroke-width:1.0;"/><polygon fill="#181818" points="260.1,717.4369,259.0889,724.5767,265.2907,728.2561,266.3018,721.1163,260.1,717.4369" style="stroke:#181818;stroke-width:1.0;"/><text fill="#000000" font-family="sans-serif" font-size="13" lengthAdjust="spacing" textLength="46.541" x="284" y="760.3638">incluye</text></g><!--link Ruta to Horario--><g id="link_Ruta_Horario"><path codeLine="46" d="M237.9,717.4369 C227.35,739.4269 214.1742,766.8967 203.6442,788.8567 " fill="none" id="Ruta-to-Horario" style="stroke:#181818;stroke-width:1.0;"/><polygon fill="#181818" points="201.05,794.2669,208.5481,787.8811,203.2119,789.7584,201.3346,784.4221,201.05,794.2669" style="stroke:#181818;stroke-width:1.0;"/><text fill="#000000" font-family="sans-serif" font-size="13" lengthAdjust="spacing" textLength="32.9443" x="225" y="760.3638">tiene</text></g><!--link Conductor to Vehiculo--><g id="link_Conductor_Vehiculo"><path codeLine="47" d="M236.56,217.3669 C253.51,231.0469 275.45,248.6969 295,264.2969 C307.29,274.0969 316.1802,281.1597 327.9002,290.4097 " fill="none" id="Conductor-to-Vehiculo" style="stroke:#181818;stroke-width:1.0;"/><polygon fill="#181818" points="332.61,294.1269,328.0234,285.4112,328.6852,291.0292,323.0671,291.6909,332.61,294.1269" style="stroke:#181818;stroke-width:1.0;"/><text fill="#000000" font-family="sans-serif" font-size="13" lengthAdjust="spacing" textLength="54.9771" x="296" y="260.3638">conduce</text></g><!--link Conductor to Ruta--><g id="link_Conductor_Ruta"><path codeLine="48" d="M155.98,202.7469 C96.13,215.7869 6,247.0869 6,317.2969 C6,317.2969 6,317.2969 6,569.2969 C6,662.5669 144.2802,684.6347 210.5002,690.0847 " fill="none" id="Conductor-to-Ruta" style="stroke:#181818;stroke-width:1.0;"/><polygon fill="#181818" points="216.48,690.5769,207.8384,685.8521,211.4968,690.1668,207.1822,693.8252,216.48,690.5769" style="stroke:#181818;stroke-width:1.0;"/><text fill="#000000" font-family="sans-serif" font-size="13" lengthAdjust="spacing" textLength="59.0142" x="7" y="447.8638">asignado</text></g><!--link Conductor to Incidencia--><g id="link_Conductor_Incidencia"><path codeLine="49" d="M209.92,217.4369 C213.43,248.2369 223.08,303.3369 249,342.2969 C270.68,374.8869 301.3679,398.4674 329.4279,416.0774 " fill="none" id="Conductor-to-Incidencia" style="stroke:#181818;stroke-width:1.0;"/><polygon fill="#181818" points="334.51,419.2669,329.0132,411.0947,330.2749,416.609,324.7606,417.8708,334.51,419.2669" style="stroke:#181818;stroke-width:1.0;"/><text fill="#000000" font-family="sans-serif" font-size="13" lengthAdjust="spacing" textLength="47.9565" x="250" y="322.8638">reporta</text></g><!--link Vehiculo to Incidencia--><g id="link_Vehiculo_Incidencia"><path codeLine="50" d="M364.63,342.4369 C367.14,364.4269 370.2013,391.3454 372.7013,413.3054 " fill="none" id="Vehiculo-to-Incidencia" style="stroke:#181818;stroke-width:1.0;"/><polygon fill="#181818" points="373.38,419.2669,376.3363,409.8722,372.8144,414.299,368.3877,410.7771,373.38,419.2669" style="stroke:#181818;stroke-width:1.0;"/><text fill="#000000" font-family="sans-serif" font-size="13" lengthAdjust="spacing" textLength="32.9316" x="371" y="385.3638">sufre</text></g><!--link Servicio to Ruta--><g id="link_Servicio_Ruta"><path codeLine="51" d="M249,592.4369 C249,614.4269 249,641.3069 249,663.2669 " fill="none" id="Servicio-to-Ruta" style="stroke:#181818;stroke-width:1.0;"/><polygon fill="#181818" points="249,669.2669,253,660.2669,249,664.2669,245,660.2669,249,669.2669" style="stroke:#181818;stroke-width:1.0;"/><text fill="#000000" font-family="sans-serif" font-size="13" lengthAdjust="spacing" textLength="36.9814" x="250" y="635.3638">cubre</text></g><!--link Servicio to Vehiculo--><g id="link_Servicio_Vehiculo"><path codeLine="52" d="M247.46,544.2669 C246.38,514.0769 247.75,460.1569 267,419.2969 C281.6,388.3169 304.9337,364.6035 326.7437,346.3035 " fill="none" id="Servicio-to-Vehiculo" style="stroke:#181818;stroke-width:1.0;"/><polygon fill="#181818" points="331.34,342.4469,321.8744,345.1676,327.5097,345.6607,327.0166,351.2961,331.34,342.4469" style="stroke:#181818;stroke-width:1.0;"/><text fill="#000000" font-family="sans-serif" font-size="13" lengthAdjust="spacing" textLength="38.9619" x="268" y="447.8638">utiliza</text></g><!--link Servicio to Conductor--><g id="link_Servicio_Conductor"><path codeLine="53" d="M244.64,544.2269 C235.36,493.7269 213.91,369.4869 207,264.2969 C205.97,248.6569 206.0018,236.9925 206.5218,223.3325 " fill="none" id="Servicio-to-Conductor" style="stroke:#181818;stroke-width:1.0;"/><polygon fill="#181818" points="206.75,217.3369,202.4105,226.1782,206.5598,222.3333,210.4047,226.4825,206.75,217.3369" style="stroke:#181818;stroke-width:1.0;"/><text fill="#000000" font-family="sans-serif" font-size="13" lengthAdjust="spacing" textLength="37.5146" x="221" y="385.3638">opera</text></g><!--reverse link Flota to Vehiculo--><g id="link_Flota_Vehiculo"><path codeLine="54" d="M359.6756,229.485 C359.1156,238.745 359.28,237.5269 359,247.2969 C358.56,262.9869 359.32,280.6369 360.19,294.2869 " fill="none" id="Flota-backto-Vehiculo" style="stroke:#181818;stroke-width:1.0;"/><polygon fill="#181818" points="360.4,217.5069,356.0451,223.2545,359.6756,229.485,364.0305,223.7374,360.4,217.5069" style="stroke:#181818;stroke-width:1.0;"/><text fill="#000000" font-family="sans-serif" font-size="13" lengthAdjust="spacing" textLength="69.5259" x="360" y="260.3638">administra</text></g><!--link Pasajero to Vehiculo--><g id="link_Pasajero_Vehiculo"><path codeLine="55" d="M465.65,217.5769 C457.95,231.9869 446.84,250.3369 434,264.2969 C423.81,275.3769 415.8901,282.2003 403.9201,290.7103 " fill="none" id="Pasajero-to-Vehiculo" style="stroke:#181818;stroke-width:1.0;"/><polygon fill="#181818" points="399.03,294.1869,408.6829,292.2321,403.1051,291.2897,404.0474,285.7119,399.03,294.1869" style="stroke:#181818;stroke-width:1.0;"/><text fill="#000000" font-family="sans-serif" font-size="13" lengthAdjust="spacing" textLength="53.5869" x="448" y="260.3638">viaja_en</text></g><!--link Pasajero to Tarifa--><g id="link_Pasajero_Tarifa"><path codeLine="56" d="M499.38,217.4369 C520.66,239.4269 548.3086,267.9941 569.5486,289.9541 " fill="none" id="Pasajero-to-Tarifa" style="stroke:#181818;stroke-width:1.0;"/><polygon fill="#181818" points="573.72,294.2669,570.3381,285.0168,570.2439,290.6729,564.5878,290.5786,573.72,294.2669" style="stroke:#181818;stroke-width:1.0;"/><text fill="#000000" font-family="sans-serif" font-size="13" lengthAdjust="spacing" textLength="32.4365" x="544" y="260.3638">paga</text></g><!--link MetodoPago to Tarifa--><g id="link_MetodoPago_Tarifa"><path codeLine="57" d="M613.86,217.4369 C609.93,239.4269 605.107,266.4007 601.177,288.3607 " fill="none" id="MetodoPago-to-Tarifa" style="stroke:#181818;stroke-width:1.0;"/><polygon fill="#181818" points="600.12,294.2669,605.6429,286.1123,601.0008,289.3451,597.768,284.703,600.12,294.2669" style="stroke:#181818;stroke-width:1.0;"/></g><!--link Abono to MetodoPago--><g id="link_Abono_MetodoPago"><path codeLine="58" d="M596.89,92.4369 C601.54,114.4269 607.2496,141.4365 611.8896,163.3965 " fill="none" id="Abono-to-MetodoPago" style="stroke:#181818;stroke-width:1.0;"/><polygon fill="#181818" points="613.13,169.2669,615.183,159.6344,612.0964,164.3749,607.3558,161.2882,613.13,169.2669" style="stroke:#181818;stroke-width:1.0;"/></g><!--link Incidencia to Servicio--><g id="link_Incidencia_Servicio"><path codeLine="59" d="M352.11,467.4369 C329.41,489.4269 299.7596,518.1323 277.0896,540.0923 " fill="none" id="Incidencia-to-Servicio" style="stroke:#181818;stroke-width:1.0;"/><polygon fill="#181818" points="272.78,544.2669,282.0275,540.878,276.3713,540.788,276.4613,535.1319,272.78,544.2669" style="stroke:#181818;stroke-width:1.0;"/><text fill="#000000" font-family="sans-serif" font-size="13" lengthAdjust="spacing" textLength="40.752" x="322" y="510.3638">afecta</text></g><!--link Viaje to Pasajero--><g id="link_Viaje_Pasajero"><path codeLine="60" d="M681.41,86.6569 C639.63,108.2469 573.5202,142.4122 527.1202,166.3922 " fill="none" id="Viaje-to-Pasajero" style="stroke:#181818;stroke-width:1.0;"/><polygon fill="#181818" points="521.79,169.1469,531.6218,168.5683,526.2319,166.8513,527.9489,161.4613,521.79,169.1469" style="stroke:#181818;stroke-width:1.0;"/><text fill="#000000" font-family="sans-serif" font-size="13" lengthAdjust="spacing" textLength="56.2847" x="611" y="135.3638">contiene</text></g><!--link Viaje to Ruta--><g id="link_Viaje_Ruta"><path codeLine="61" d="M719.8,92.3069 C724.51,116.9269 731,157.1969 731,192.2969 C731,192.2969 731,192.2969 731,569.2969 C731,662.2469 396.2332,685.5618 287.7432,690.7218 " fill="none" id="Viaje-to-Ruta" style="stroke:#181818;stroke-width:1.0;"/><polygon fill="#181818" points="281.75,691.0069,290.9299,694.5748,286.7444,690.7693,290.5498,686.5838,281.75,691.0069" style="stroke:#181818;stroke-width:1.0;"/><text fill="#000000" font-family="sans-serif" font-size="13" lengthAdjust="spacing" textLength="34.874" x="732" y="385.3638">sigue</text></g><!--SRC=[VLBBJiCm4BpxA_QCb1_80GaL8JWWHRJg5MtjRLWKl9KV5G_nOrpvCPoaTUA0kEGmCvdCpYHmw0Yk6Lk7BmY6ODMX9myLhDa76h6DG-iFuW91y_srwrYBKZe9FJJal5Y43_LvXbPYJTH17D1h86l-53NeyPcS_AVPqXFhsCaSUuYXqDoAGyTIMZiqXMXDxiYwLDrPpORIer3UT5BwRvBxla2kTc8BftiAOgJ1ja2tdEuRWI7pHLMTazN0LdVnZKQcgYxp6JK49ajgwh1dSn4rw85O2WQV6j1pQz78WfsTMeEZVaXKsVENmiUz8vKxc_dhk5ioisWnSCVlMF9JaXhaG0xLM75Vn-nTD2ziqm-N-FndBEoFgL1y95iAJllKSC0MrMoAYLJZOZqmyMfsSi_aq2dBddHVq31Wp-KF3lMF0qtigPjKVQGV]--></g></svg>