<svg xmlns="http://www.w3.org/2000/svg" xmlns:xlink="http://www.w3.org/1999/xlink" contentStyleType="text/css" height="704px" preserveAspectRatio="none" style="width:1426px;height:704px;background:#FFFFFF;" version="1.1" viewBox="0 0 1426 704" width="1426px" zoomAndPan="magnify"><title>Diagrama de Estados - Sistema de Transporte P&#250;blico</title><defs/><g><text fill="#000000" font-family="sans-serif" font-size="14" font-weight="bold" lengthAdjust="spacing" textLength="425.3799" x="493.5386" y="22.9951">Diagrama de Estados - Sistema de Transporte P&#250;blico</text><ellipse cx="479.5" cy="53.2969" fill="#222222" rx="10" ry="10" style="stroke:#222222;stroke-width:1.0;"/><g id="Inactivo"><rect fill="#F1F1F1" height="50" rx="12.5" ry="12.5" style="stroke:#181818;stroke-width:0.5;" width="75.5078" x="441.5" y="140.2969"/><line style="stroke:#181818;stroke-width:0.5;" x1="441.5" x2="517.0078" y1="166.5938" y2="166.5938"/><text fill="#000000" font-family="sans-serif" font-size="14" lengthAdjust="spacing" textLength="55.5078" x="451.5" y="158.292">Inactivo</text></g><g id="EnServicio"><rect fill="#F1F1F1" height="50" rx="12.5" ry="12.5" style="stroke:#181818;stroke-width:0.5;" width="93.3018" x="433" y="267.2969"/><line style="stroke:#181818;stroke-width:0.5;" x1="433" x2="526.3018" y1="293.5938" y2="293.5938"/><text fill="#000000" font-family="sans-serif" font-size="14" lengthAdjust="spacing" textLength="73.3018" x="443" y="285.292">EnServicio</text></g><g id="EnRuta"><rect fill="#F1F1F1" height="50" rx="12.5" ry="12.5" style="stroke:#181818;stroke-width:0.5;" width="70.3877" x="444.5" y="394.2969"/><line style="stroke:#181818;stroke-width:0.5;" x1="444.5" x2="514.8877" y1="420.5938" y2="420.5938"/><text fill="#000000" font-family="sans-serif" font-size="14" lengthAdjust="spacing" textLength="50.3877" x="454.5" y="412.292">EnRuta</text></g><g id="Parada"><rect fill="#F1F1F1" height="50" rx="12.5" ry="12.5" style="stroke:#181818;stroke-width:0.5;" width="68.8223" x="495" y="521.2969"/><line style="stroke:#181818;stroke-width:0.5;" x1="495" x2="563.8223" y1="547.5938" y2="547.5938"/><text fill="#000000" font-family="sans-serif" font-size="14" lengthAdjust="spacing" textLength="48.8223" x="505" y="539.292">Parada</text></g><g id="GestionIncidencia"><rect fill="#F1F1F1" height="50" rx="12.5" ry="12.5" style="stroke:#181818;stroke-width:0.5;" width="144.7012" x="872" y="521.2969"/><line style="stroke:#181818;stroke-width:0.5;" x1="872" x2="1016.7012" y1="547.5938" y2="547.5938"/><text fill="#000000" font-family="sans-serif" font-size="14" lengthAdjust="spacing" textLength="124.7012" x="882" y="539.292">GestionIncidencia</text></g><g id="Mantenimiento"><rect fill="#F1F1F1" height="50" rx="12.5" ry="12.5" style="stroke:#181818;stroke-width:0.5;" width="125.4648" x="971" y="648.2969"/><line style="stroke:#181818;stroke-width:0.5;" x1="971" x2="1096.4648" y1="674.5938" y2="674.5938"/><text fill="#000000" font-family="sans-serif" font-size="14" lengthAdjust="spacing" textLength="105.4648" x="981" y="666.292">Mantenimiento</text></g><g id="Finalizado"><rect fill="#F1F1F1" height="50" rx="12.5" ry="12.5" style="stroke:#181818;stroke-width:0.5;" width="90.5537" x="7" y="521.2969"/><line style="stroke:#181818;stroke-width:0.5;" x1="7" x2="97.5537" y1="547.5938" y2="547.5938"/><text fill="#000000" font-family="sans-serif" font-size="14" lengthAdjust="spacing" textLength="70.5537" x="17" y="539.292">Finalizado</text></g><!--link *start* to Inactivo--><g id="link_*start*_Inactivo"><path d="M479.5,63.2969 C479.5,79.9269 479.5,109.9569 479.5,134.1669 " fill="none" id="*start*-to-Inactivo" style="stroke:#181818;stroke-width:1.0;"/><polygon fill="#181818" points="479.5,140.1669,483.5,131.1669,479.5,135.1669,475.5,131.1669,479.5,140.1669" style="stroke:#181818;stroke-width:1.0;"/><text fill="#000000" font-family="sans-serif" font-size="13" lengthAdjust="spacing" textLength="107.1104" x="480.5" y="106.3638">Sistema Iniciado</text></g><!--link Inactivo to EnServicio--><g id="link_Inactivo_EnServicio"><path d="M479.5,190.3969 C479.5,212.5369 479.5,239.1569 479.5,261.2669 " fill="none" id="Inactivo-to-EnServicio" style="stroke:#181818;stroke-width:1.0;"/><polygon fill="#181818" points="479.5,267.2669,483.5,258.2669,479.5,262.2669,475.5,258.2669,479.5,267.2669" style="stroke:#181818;stroke-width:1.0;"/><text fill="#000000" font-family="sans-serif" font-size="13" lengthAdjust="spacing" textLength="152.2866" x="480.5" y="233.3638">Activar Servicio P&#250;blico</text></g><!--link EnServicio to EnRuta--><g id="link_EnServicio_EnRuta"><path d="M479.5,317.3969 C479.5,339.5369 479.5,366.1569 479.5,388.2669 " fill="none" id="EnServicio-to-EnRuta" style="stroke:#181818;stroke-width:1.0;"/><polygon fill="#181818" points="479.5,394.2669,483.5,385.2669,479.5,389.2669,475.5,385.2669,479.5,394.2669" style="stroke:#181818;stroke-width:1.0;"/><text fill="#000000" font-family="sans-serif" font-size="13" lengthAdjust="spacing" textLength="155.2002" x="480.5" y="360.3638">Asignar Ruta y Veh&#237;culo</text></g><!--link EnRuta to Parada--><g id="link_EnRuta_Parada"><path d="M444.42,435.2469 C418.78,448.4269 390.86,468.9569 405.5,491.2969 C415.83,507.0569 456.2405,522.4426 489.2105,533.0926 " fill="none" id="EnRuta-to-Parada" style="stroke:#181818;stroke-width:1.0;"/><polygon fill="#181818" points="494.92,534.9369,487.5853,528.3641,490.1621,533.4,485.1262,535.9768,494.92,534.9369" style="stroke:#181818;stroke-width:1.0;"/><text fill="#000000" font-family="sans-serif" font-size="13" lengthAdjust="spacing" textLength="101.9814" x="406.5" y="487.3638">Llegar a Parada</text></g><!--link Parada to EnRuta--><g id="link_Parada_EnRuta"><path d="M525.65,521.0469 C522.94,507.0369 518.69,489.2869 512.5,474.2969 C508.26,464.0369 505.4502,458.5395 499.7002,449.4995 " fill="none" id="Parada-to-EnRuta" style="stroke:#181818;stroke-width:1.0;"/><polygon fill="#181818" points="496.48,444.4369,497.9351,454.1776,499.1635,448.6558,504.6854,449.8841,496.48,444.4369" style="stroke:#181818;stroke-width:1.0;"/><text fill="#000000" font-family="sans-serif" font-size="13" lengthAdjust="spacing" textLength="98.6362" x="518.5" y="487.3638">Salir de Parada</text></g><!--link EnRuta to GestionIncidencia--><g id="link_EnRuta_GestionIncidencia"><path d="M514.6,433.6569 C555.81,449.0169 626.41,474.2669 688.5,491.2969 C749.72,508.0869 814.4945,521.522 866.0545,531.272 " fill="none" id="EnRuta-to-GestionIncidencia" style="stroke:#181818;stroke-width:1.0;"/><polygon fill="#181818" points="871.95,532.3869,863.85,526.7843,867.0371,531.4578,862.3635,534.645,871.95,532.3869" style="stroke:#181818;stroke-width:1.0;"/><text fill="#000000" font-family="sans-serif" font-size="13" lengthAdjust="spacing" textLength="211.7007" x="689.5" y="487.3638">Reportar Incidencia (Ej. Retraso)</text></g><!--link GestionIncidencia to EnRuta--><g id="link_GestionIncidencia_EnRuta"><path d="M937.64,521.2469 C931.77,505.2769 921.66,485.2869 905.5,474.2969 C842.01,431.1069 610.8489,422.5719 520.6389,420.8419 " fill="none" id="GestionIncidencia-to-EnRuta" style="stroke:#181818;stroke-width:1.0;"/><polygon fill="#181818" points="514.64,420.7269,523.5616,424.8987,519.6391,420.8227,523.715,416.9002,514.64,420.7269" style="stroke:#181818;stroke-width:1.0;"/><text fill="#000000" font-family="sans-serif" font-size="13" lengthAdjust="spacing" textLength="126.896" x="922.5" y="487.3638">Incidencia Resuelta</text></g><!--link GestionIncidencia to Mantenimiento--><g id="link_GestionIncidencia_Mantenimiento"><path d="M941.88,571.6169 C941.47,586.1369 943.11,604.4069 951.5,618.2969 C958.81,630.4069 965.0268,636.995 976.8068,644.895 " fill="none" id="GestionIncidencia-to-Mantenimiento" style="stroke:#181818;stroke-width:1.0;"/><polygon fill="#181818" points="981.79,648.2369,976.5431,639.902,977.6374,645.452,972.0873,646.5462,981.79,648.2369" style="stroke:#181818;stroke-width:1.0;"/><text fill="#000000" font-family="sans-serif" font-size="13" lengthAdjust="spacing" textLength="133.9609" x="952.5" y="614.3638">Necesita Reparaci&#243;n</text></g><!--link EnRuta to Mantenimiento--><g id="link_EnRuta_Mantenimiento"><path d="M444.45,432.4769 C425.52,441.0269 403.77,454.5269 392.5,474.2969 C371.14,511.7469 363.48,538.5269 391.5,571.2969 C465.74,658.1269 818.2303,670.7255 964.8303,672.2255 " fill="none" id="EnRuta-to-Mantenimiento" style="stroke:#181818;stroke-width:1.0;"/><polygon fill="#181818" points="970.83,672.2869,961.8714,668.195,965.8303,672.2357,961.7895,676.1946,970.83,672.2869" style="stroke:#181818;stroke-width:1.0;"/><text fill="#000000" font-family="sans-serif" font-size="13" lengthAdjust="spacing" textLength="84.7158" x="392.5" y="550.8638">Aver&#237;a Grave</text></g><!--link Mantenimiento to EnServicio--><g id="link_Mantenimiento_EnServicio"><path d="M1067.9,648.1169 C1076.98,639.8069 1085.6,629.6969 1090.5,618.2969 C1116.44,557.9769 1102.77,521.8569 1057.5,474.2969 C911.05,320.4469 641.8375,296.8704 532.2575,293.7004 " fill="none" id="Mantenimiento-to-EnServicio" style="stroke:#181818;stroke-width:1.0;"/><polygon fill="#181818" points="526.26,293.5269,535.1406,297.7855,531.2579,293.6715,535.3719,289.7888,526.26,293.5269" style="stroke:#181818;stroke-width:1.0;"/><text fill="#000000" font-family="sans-serif" font-size="13" lengthAdjust="spacing" textLength="156.4824" x="1072.5" y="487.3638">Reparaci&#243;n Completada</text></g><!--link Mantenimiento to Inactivo--><g id="link_Mantenimiento_Inactivo"><path d="M1096.11,668.8969 C1173.04,660.9469 1293.5,634.5669 1293.5,547.2969 C1293.5,291.2969 1293.5,291.2969 1293.5,291.2969 C1293.5,211.7669 684.5926,176.354 523.6626,168.374 " fill="none" id="Mantenimiento-to-Inactivo" style="stroke:#181818;stroke-width:1.0;"/><polygon fill="#181818" points="517.67,168.0769,526.4609,172.5177,522.6639,168.3245,526.8571,164.5275,517.67,168.0769" style="stroke:#181818;stroke-width:1.0;"/><text fill="#000000" font-family="sans-serif" font-size="13" lengthAdjust="spacing" textLength="123.957" x="1294.5" y="423.8638">Servicio Cancelado</text></g><!--link EnRuta to Finalizado--><g id="link_EnRuta_Finalizado"><path d="M444.43,422.0569 C363.14,426.6669 164.44,441.0969 107.5,474.2969 C88.78,485.2169 77.2189,500.0393 67.7789,516.0393 " fill="none" id="EnRuta-to-Finalizado" style="stroke:#181818;stroke-width:1.0;"/><polygon fill="#181818" points="64.73,521.2069,72.7484,515.488,67.2707,516.9005,65.8583,511.4229,64.73,521.2069" style="stroke:#181818;stroke-width:1.0;"/><text fill="#000000" font-family="sans-serif" font-size="13" lengthAdjust="spacing" textLength="215.4204" x="108.5" y="487.3638">Finalizar Ruta (Ej. &#218;ltima Parada)</text></g><!--link Finalizado to Inactivo--><g id="link_Finalizado_Inactivo"><path d="M45.14,521.2069 C34.5,481.2869 19.76,400.5269 55.5,347.2969 C145.06,213.8969 348.923,179.0353 435.323,169.9353 " fill="none" id="Finalizado-to-Inactivo" style="stroke:#181818;stroke-width:1.0;"/><polygon fill="#181818" points="441.29,169.3069,431.9205,166.2716,436.3175,169.8306,432.7585,174.2276,441.29,169.3069" style="stroke:#181818;stroke-width:1.0;"/><text fill="#000000" font-family="sans-serif" font-size="13" lengthAdjust="spacing" textLength="176.1411" x="56.5" y="360.3638">Desactivar Servicio P&#250;blico</text></g><!--link Finalizado to EnServicio--><g id="link_Finalizado_EnServicio"><path d="M56.43,521.0669 C59.96,506.0269 66.52,487.1769 78.5,474.2969 C177.31,368.0069 344.4745,321.0501 427.1245,303.2501 " fill="none" id="Finalizado-to-EnServicio" style="stroke:#181818;stroke-width:1.0;"/><polygon fill="#181818" points="432.99,301.9869,423.3496,299.9714,428.1021,303.0396,425.0339,307.7921,432.99,301.9869" style="stroke:#181818;stroke-width:1.0;"/><text fill="#000000" font-family="sans-serif" font-size="13" lengthAdjust="spacing" textLength="136.2778" x="177.5" y="423.8638">Preparar Nueva Ruta</text></g><!--SRC=[TPBFIiD04CRl-nHpj49z00z2QQiKj9HMl8Y7SJFKaSrksPq4z55yXvwyUSsBkPkcOTFIIs2_-NxpDy9Y26QCMuybGa4m3uA52p263GUXW_ZiqOQTyqAmQlxU3MkdrElr6up7Tx2mg8Lh1xSzih2iEQPHgWycvznkoDSnbBoJfAE7NkepPxO3jQu44n5uQoFHFh_WXJwQlQvC0befcLVeiKZcHqFRwCLEKLrWa723XdsQh_FaYHue23kxi9eBYf_aNrFQGSoQgLVppviO48_1ZTGvDIYOwMiA5Hd12yWJMY7B9PELjAqbQGeiYTl5PZKtltRGxoamgSatUuG7ZpMfOVJi5bbIcBfoPqZIFiwf_DP7V8fMascldVLpppPkzplAqNjyTBThTzRy6E7oU9-Hoe2JIZCAUF5dES46OwryEvU7PKKrjhN_0G00]--></g></svg>